<svg width="52" height="52" viewBox="0 0 52 52" fill="none" xmlns="http://www.w3.org/2000/svg">
<path d="M26.0393 1C25.8001 1 25.2929 1.02604 25.1781 1.13021C25.0632 1.23437 24.269 2.38889 23.8862 2.95312L23.025 4.90625L22.5944 6.98958V17.4062C22.3552 17.6667 20.951 18.6175 20.7284 18.7083C20.5059 18.7991 20.0107 18.8385 20.0107 18.8385C20.0107 18.8385 19.8672 19.099 19.8672 18.8385V16.3646C19.8672 16.1562 19.7236 15.8437 19.5801 15.8437H16.2788C16.1831 15.8437 15.9917 15.9479 15.9917 16.3646V19.4896C15.9917 19.6979 16.0874 20.3576 16.1352 20.6615C16.1352 20.8698 14.7955 21.4427 14.1257 21.7031L1.92502 27.4323C1.63794 27.5191 1.06379 27.8229 1.06379 28.3437C1.06379 28.9948 0.920258 30.8177 1.06379 30.9479C1.20733 31.0781 1.49441 31.2083 1.63794 31.2083H2.06856C2.16425 31.1649 2.35563 31.0521 2.35563 30.9479V30.6875L3.36039 30.2969L7.81005 29.125C7.8579 29.0816 8.011 29.0208 8.24066 29.125C8.52774 29.2552 8.52774 29.3854 8.67127 29.5156C8.81481 29.6458 8.81481 29.776 8.95835 29.776H9.5325C9.62819 29.6892 9.81957 29.4896 9.81957 29.3854C9.81957 29.2552 9.81957 28.8646 9.96311 28.7344L10.3937 28.3437C10.5086 28.2396 11.6856 27.9531 12.2597 27.8229C12.5468 27.7361 13.1496 27.5885 13.2645 27.6927L13.8386 28.2135C13.8865 28.2569 14.0109 28.3437 14.1257 28.3437H14.6998C14.9295 28.3437 14.9869 27.7361 14.9869 27.4323C14.9869 27.3021 15.1624 27.0923 15.274 27.0417C15.5611 26.9115 16.1352 26.651 16.4223 26.651C16.6137 26.6076 17.0251 26.5208 17.14 26.5208C17.2835 26.5208 17.5706 27.1719 17.7141 27.1719H18.5754C18.6232 27.3455 18.7763 27.6927 19.006 27.6927C19.2356 27.6927 19.5801 27.5191 19.7237 27.4323C19.8193 27.2587 20.0107 26.8854 20.0107 26.7812C20.0107 26.651 20.1543 26.5208 20.2978 26.5208H22.4509C22.5944 26.5208 22.5944 27.1719 22.5944 27.3021V37.3281C22.5944 38.7604 23.1398 41.9375 23.5992 42.6667V43.1875L17.2835 46.9635L16.8529 47.224C16.8051 47.2674 16.5658 47.3542 16.5658 47.6146C16.5658 47.875 16.518 48.9167 16.5658 49.4375C16.6137 49.5243 16.7381 49.724 16.8529 49.8281C16.9964 49.9583 17.2835 49.9583 17.4271 49.9583C17.5419 49.9583 21.781 49.0035 23.8862 48.526C24.1255 48.4826 24.6039 48.4219 24.6039 48.526C24.6039 48.6302 24.891 49.8715 25.0345 50.4792C25.0824 50.6528 25.2355 51 25.4651 51H26.1828M26.0397 1C26.2782 1 26.7838 1.02604 26.8983 1.13021C27.0127 1.23437 27.8045 2.38889 28.186 2.95312L29.0445 4.90625L29.4738 6.98958V17.4062C29.7122 17.6667 31.112 18.6175 31.3339 18.7083C31.5557 18.7991 32.0493 18.8385 32.0493 18.8385C32.0493 18.8385 32.1924 19.099 32.1924 18.8385V16.3646C32.1924 16.1562 32.3355 15.8437 32.4785 15.8437H35.7695C35.8649 15.8437 36.0556 15.9479 36.0556 16.3646V19.4896C36.0556 19.6979 35.9603 20.3576 35.9126 20.6615C35.9126 20.8698 37.248 21.4427 37.9157 21.7031L50.0779 27.4323C50.3641 27.5191 50.9364 27.8229 50.9364 28.3437C50.9364 28.9948 51.0795 30.8177 50.9364 30.9479C50.7933 31.0781 50.5072 31.2083 50.3641 31.2083H49.9348C49.8394 31.1649 49.6486 31.0521 49.6486 30.9479V30.6875L48.6471 30.2969L44.2114 29.125C44.1638 29.0816 44.0111 29.0208 43.7822 29.125C43.496 29.2552 43.496 29.3854 43.3529 29.5156C43.2099 29.6458 43.2099 29.776 43.0668 29.776H42.4944C42.399 29.6892 42.2083 29.4896 42.2083 29.3854C42.2083 29.2552 42.2083 28.8646 42.0652 28.7344L41.6359 28.3437C41.5215 28.2396 40.3482 27.9531 39.7758 27.8229C39.4897 27.7361 38.8887 27.5885 38.7742 27.6927L38.2019 28.2135C38.1542 28.2569 38.0302 28.3437 37.9157 28.3437H37.3434C37.1145 28.3437 37.0572 27.7361 37.0572 27.4323C37.0572 27.3021 36.8823 27.0923 36.7711 27.0417C36.4849 26.9115 35.9126 26.651 35.6264 26.651C35.4356 26.6076 35.0254 26.5208 34.911 26.5208C34.7679 26.5208 34.4817 27.1719 34.3386 27.1719H33.4801C33.4324 27.3455 33.2798 27.6927 33.0509 27.6927C32.8219 27.6927 32.4785 27.5191 32.3355 27.4323C32.2401 27.2587 32.0493 26.8854 32.0493 26.7812C32.0493 26.651 31.9062 26.5208 31.7631 26.5208H29.6169C29.4738 26.5208 29.4738 27.1719 29.4738 27.3021V37.3281C29.4738 38.7604 28.93 41.9375 28.4722 42.6667V43.1875L34.7679 46.9635L35.1971 47.224C35.2448 47.2674 35.4833 47.3542 35.4833 47.6146C35.4833 47.875 35.531 48.9167 35.4833 49.4375C35.4356 49.5243 35.3116 49.724 35.1971 49.8281C35.0541 49.9583 34.7679 49.9583 34.6248 49.9583C34.5103 49.9583 30.2846 49.0035 28.186 48.526C27.9475 48.4826 27.4706 48.4219 27.4706 48.526C27.4706 48.6302 27.1844 49.8715 27.0413 50.4792C26.9936 50.6528 26.841 51 26.6121 51H25.8967" stroke="black" stroke-width="1.2"/>
</svg>
