<svg width="235" height="38" viewBox="0 0 235 38" fill="none" xmlns="http://www.w3.org/2000/svg">
<path d="M12.4283 37.8998C9.92703 37.8998 7.74477 37.2745 5.88142 36.0239C4.01808 34.7733 2.5744 33.0726 1.5504 30.9216C0.526407 28.7706 0.0144043 26.3445 0.0144043 23.6432C0.0144043 20.9086 0.526407 18.4742 1.5504 16.3399C2.59119 14.1889 4.06004 12.4965 5.95696 11.2625C7.85391 10.012 10.0865 9.38666 12.6549 9.38666C15.2401 9.38666 17.4056 10.012 19.1515 11.2625C20.9141 12.4965 22.2486 14.1889 23.1551 16.3399C24.0616 18.4908 24.5149 20.9253 24.5149 23.6432C24.5149 26.3278 24.0616 28.7539 23.1551 30.9216C22.2486 33.0726 20.8973 34.7733 19.1011 36.0239C17.3049 37.2745 15.0807 37.8998 12.4283 37.8998ZM13.36 32.4973C14.9883 32.4973 16.2977 32.1305 17.2881 31.3968C18.2953 30.6464 19.0256 29.6043 19.4788 28.2703C19.9488 26.9364 20.1838 25.394 20.1838 23.6432C20.1838 21.8758 19.9488 20.3333 19.4788 19.0161C19.0256 17.6821 18.3121 16.6484 17.3385 15.9147C16.3649 15.1643 15.1058 14.7891 13.5614 14.7891C11.9331 14.7891 10.5901 15.1893 9.53257 15.9897C8.475 16.7734 7.69441 17.8405 7.1908 19.1912C6.68719 20.5251 6.43539 22.0091 6.43539 23.6432C6.43539 25.294 6.67877 26.7947 7.16562 28.1453C7.66922 29.4793 8.43305 30.538 9.45703 31.3217C10.481 32.1055 11.782 32.4973 13.36 32.4973ZM20.1838 37.1494V18.1907H19.4284V1.13287H25.5473V37.1494H20.1838ZM68.6544 37.1494L60.3449 10.087L66.2875 10.137L71.6005 27.47L76.9891 10.137H82.1007L87.4641 27.47L92.8023 10.137H98.7449L90.4354 37.1494H85.7015L79.5323 18.5659L73.3883 37.1494H68.6544ZM120.084 37.1494V24.1434C120.084 23.2931 120.025 22.351 119.908 21.3171C119.791 20.2833 119.514 19.2912 119.077 18.3408C118.658 17.3737 118.02 16.5816 117.164 15.9647C116.324 15.3478 115.183 15.0393 113.739 15.0393C112.967 15.0393 112.203 15.1643 111.448 15.4144C110.692 15.6645 110.004 16.0981 109.383 16.715C108.778 17.3153 108.291 18.149 107.922 19.2162C107.553 20.2667 107.368 21.6173 107.368 23.268L103.768 21.7423C103.768 19.4413 104.212 17.357 105.102 15.4895C106.009 13.622 107.335 12.1379 109.081 11.0374C110.827 9.92027 112.975 9.36165 115.527 9.36165C117.541 9.36165 119.203 9.69516 120.513 10.3621C121.822 11.0291 122.863 11.8794 123.635 12.9133C124.407 13.9471 124.978 15.0476 125.347 16.2148C125.716 17.382 125.951 18.4908 126.052 19.5413C126.169 20.5752 126.228 21.4172 126.228 22.0675V37.1494H120.084ZM101.224 37.1494V10.137H106.638V18.5159H107.368V37.1494H101.224ZM136.577 37.1494L128.267 10.087L134.21 10.137L139.523 27.47L144.911 10.137H150.023L155.386 27.47L160.725 10.137H166.667L158.358 37.1494H153.624L147.455 18.5659L141.311 37.1494H136.577ZM169.701 6.03512V0.507584H175.769V6.03512H169.701ZM169.701 37.1494V10.137H175.769V37.1494H169.701ZM200.107 37.1494V24.1434C200.107 23.2931 200.048 22.351 199.93 21.3171C199.813 20.2833 199.536 19.2912 199.1 18.3408C198.68 17.3737 198.042 16.5816 197.186 15.9647C196.346 15.3478 195.205 15.0393 193.761 15.0393C192.989 15.0393 192.225 15.1643 191.47 15.4144C190.714 15.6645 190.026 16.0981 189.405 16.715C188.801 17.3153 188.314 18.149 187.945 19.2162C187.576 20.2667 187.391 21.6173 187.391 23.268L183.79 21.7423C183.79 19.4413 184.234 17.357 185.124 15.4895C186.031 13.622 187.357 12.1379 189.103 11.0374C190.849 9.92027 192.997 9.36165 195.549 9.36165C197.564 9.36165 199.225 9.69516 200.535 10.3621C201.844 11.0291 202.885 11.8794 203.657 12.9133C204.429 13.9471 205 15.0476 205.369 16.2148C205.738 17.382 205.974 18.4908 206.074 19.5413C206.192 20.5752 206.251 21.4172 206.251 22.0675V37.1494H200.107ZM181.247 37.1494V10.137H186.66V18.5159H187.391V37.1494H181.247ZM221.268 37.8998C218.766 37.8998 216.584 37.2745 214.721 36.0239C212.857 34.7733 211.413 33.0726 210.39 30.9216C209.366 28.7706 208.854 26.3445 208.854 23.6432C208.854 20.9086 209.366 18.4742 210.39 16.3399C211.431 14.1889 212.899 12.4965 214.796 11.2625C216.693 10.012 218.926 9.38666 221.494 9.38666C224.079 9.38666 226.245 10.012 227.991 11.2625C229.753 12.4965 231.088 14.1889 231.994 16.3399C232.901 18.4908 233.354 20.9253 233.354 23.6432C233.354 26.3278 232.901 28.7539 231.994 30.9216C231.088 33.0726 229.737 34.7733 227.94 36.0239C226.144 37.2745 223.92 37.8998 221.268 37.8998ZM222.199 32.4973C223.827 32.4973 225.137 32.1305 226.127 31.3968C227.135 30.6464 227.865 29.6043 228.318 28.2703C228.788 26.9364 229.023 25.394 229.023 23.6432C229.023 21.8758 228.788 20.3333 228.318 19.0161C227.865 17.6821 227.151 16.6484 226.178 15.9147C225.204 15.1643 223.945 14.7891 222.401 14.7891C220.773 14.7891 219.429 15.1893 218.372 15.9897C217.314 16.7734 216.534 17.8405 216.03 19.1912C215.527 20.5251 215.275 22.0091 215.275 23.6432C215.275 25.294 215.518 26.7947 216.005 28.1453C216.509 29.4793 217.273 30.538 218.296 31.3217C219.32 32.1055 220.622 32.4973 222.199 32.4973ZM229.023 37.1494V18.1907H228.268V1.13287H234.387V37.1494H229.023Z" fill="black"/>
<path d="M44.0327 36.3678C51.6379 36.3678 57.8032 30.2439 57.8032 22.6897C57.8032 15.1354 51.6379 9.01149 44.0327 9.01149C36.4275 9.01149 30.2622 15.1354 30.2622 22.6897C30.2622 30.2439 36.4275 36.3678 44.0327 36.3678Z" stroke="#265DED" stroke-width="3"/>
<path d="M41.5682 24.8178L36.3028 22.6853C36.138 22.6322 36.0081 22.5258 35.9131 22.3664C35.8181 22.2069 35.7705 22.0408 35.7705 21.8681C35.7705 21.6954 35.8212 21.5393 35.9226 21.3998C36.024 21.2603 36.1507 21.1639 36.3028 21.1108L48.9246 16.1083C49.0767 16.0418 49.2192 16.0285 49.3523 16.0684C49.4853 16.1083 49.6089 16.1813 49.723 16.2876C49.8117 16.3939 49.875 16.5201 49.913 16.6663C49.9511 16.8124 49.9384 16.9586 49.875 17.1047L45.1418 30.3385C45.0785 30.5378 44.974 30.6806 44.8282 30.767C44.6825 30.8534 44.5336 30.8965 44.3815 30.8965C44.2167 30.8965 44.0615 30.8534 43.9158 30.767C43.77 30.6806 43.6719 30.5445 43.6211 30.3584L41.5682 24.8178Z" fill="#265DED"/>
</svg>
