<svg width="240" height="68" viewBox="0 0 240 68" fill="none" xmlns="http://www.w3.org/2000/svg">
<path d="M14.4283 53.8997C11.927 53.8997 9.74476 53.2745 7.88142 52.0239C6.01808 50.7733 4.5744 49.0725 3.5504 46.9215C2.52641 44.7706 2.0144 42.3444 2.0144 39.6432C2.0144 36.9086 2.52641 34.4742 3.5504 32.3398C4.59119 30.1889 6.06004 28.4964 7.95696 27.2625C9.85391 26.0119 12.0865 25.3866 14.6549 25.3866C17.2401 25.3866 19.4056 26.0119 21.1515 27.2625C22.9141 28.4964 24.2486 30.1889 25.1551 32.3398C26.0616 34.4908 26.5149 36.9253 26.5149 39.6432C26.5149 42.3278 26.0616 44.7539 25.1551 46.9215C24.2486 49.0725 22.8973 50.7733 21.1011 52.0239C19.3049 53.2745 17.0807 53.8997 14.4283 53.8997ZM15.36 48.4973C16.9883 48.4973 18.2977 48.1305 19.2881 47.3968C20.2953 46.6464 21.0256 45.6043 21.4788 44.2703C21.9488 42.9364 22.1838 41.394 22.1838 39.6432C22.1838 37.8757 21.9488 36.3333 21.4788 35.0161C21.0256 33.6821 20.3121 32.6483 19.3385 31.9146C18.3649 31.1643 17.1058 30.7891 15.5614 30.7891C13.9331 30.7891 12.5901 31.1893 11.5326 31.9897C10.475 32.7734 9.69441 33.8405 9.1908 35.1912C8.68719 36.5251 8.43539 38.0091 8.43539 39.6432C8.43539 41.294 8.67877 42.7946 9.16562 44.1453C9.66922 45.4792 10.4331 46.538 11.457 47.3217C12.481 48.1054 13.782 48.4973 15.36 48.4973ZM22.1838 53.1494V34.1907H21.4284V17.1329H27.5473V53.1494H22.1838ZM70.6544 53.1494L62.3449 26.087L68.2875 26.137L73.6005 43.47L78.9891 26.137H84.1007L89.4641 43.47L94.8023 26.137H100.745L92.4354 53.1494H87.7015L81.5323 34.5659L75.3883 53.1494H70.6544ZM122.084 53.1494V40.1434C122.084 39.293 122.025 38.351 121.908 37.3171C121.791 36.2833 121.514 35.2912 121.077 34.3408C120.658 33.3737 120.02 32.5816 119.164 31.9647C118.324 31.3477 117.183 31.0392 115.739 31.0392C114.967 31.0392 114.203 31.1643 113.448 31.4144C112.692 31.6645 112.004 32.0981 111.383 32.715C110.778 33.3153 110.291 34.149 109.922 35.2162C109.553 36.2666 109.368 37.6173 109.368 39.268L105.768 37.7423C105.768 35.4413 106.212 33.357 107.102 31.4895C108.009 29.622 109.335 28.1379 111.081 27.0374C112.827 25.9203 114.975 25.3616 117.527 25.3616C119.541 25.3616 121.203 25.6951 122.513 26.3621C123.822 27.029 124.863 27.8794 125.635 28.9133C126.407 29.9471 126.978 31.0476 127.347 32.2148C127.716 33.382 127.951 34.4908 128.052 35.5413C128.169 36.5751 128.228 37.4172 128.228 38.0675V53.1494H122.084ZM103.224 53.1494V26.137H108.638V34.5158H109.368V53.1494H103.224ZM138.577 53.1494L130.267 26.087L136.21 26.137L141.523 43.47L146.911 26.137H152.023L157.386 43.47L162.725 26.137H168.667L160.358 53.1494H155.624L149.455 34.5659L143.311 53.1494H138.577ZM171.701 22.0351V16.5076H177.769V22.0351H171.701ZM171.701 53.1494V26.137H177.769V53.1494H171.701ZM202.107 53.1494V40.1434C202.107 39.293 202.048 38.351 201.93 37.3171C201.813 36.2833 201.536 35.2912 201.1 34.3408C200.68 33.3737 200.042 32.5816 199.186 31.9647C198.346 31.3477 197.205 31.0392 195.761 31.0392C194.989 31.0392 194.225 31.1643 193.47 31.4144C192.714 31.6645 192.026 32.0981 191.405 32.715C190.801 33.3153 190.314 34.149 189.945 35.2162C189.576 36.2666 189.391 37.6173 189.391 39.268L185.79 37.7423C185.79 35.4413 186.234 33.357 187.124 31.4895C188.031 29.622 189.357 28.1379 191.103 27.0374C192.849 25.9203 194.997 25.3616 197.549 25.3616C199.564 25.3616 201.225 25.6951 202.535 26.3621C203.844 27.029 204.885 27.8794 205.657 28.9133C206.429 29.9471 207 31.0476 207.369 32.2148C207.738 33.382 207.974 34.4908 208.074 35.5413C208.192 36.5751 208.251 37.4172 208.251 38.0675V53.1494H202.107ZM183.247 53.1494V26.137H188.66V34.5158H189.391V53.1494H183.247ZM223.268 53.8997C220.766 53.8997 218.584 53.2745 216.721 52.0239C214.857 50.7733 213.413 49.0725 212.39 46.9215C211.366 44.7706 210.854 42.3444 210.854 39.6432C210.854 36.9086 211.366 34.4742 212.39 32.3398C213.431 30.1889 214.899 28.4964 216.796 27.2625C218.693 26.0119 220.926 25.3866 223.494 25.3866C226.079 25.3866 228.245 26.0119 229.991 27.2625C231.753 28.4964 233.088 30.1889 233.994 32.3398C234.901 34.4908 235.354 36.9253 235.354 39.6432C235.354 42.3278 234.901 44.7539 233.994 46.9215C233.088 49.0725 231.737 50.7733 229.94 52.0239C228.144 53.2745 225.92 53.8997 223.268 53.8997ZM224.199 48.4973C225.827 48.4973 227.137 48.1305 228.127 47.3968C229.135 46.6464 229.865 45.6043 230.318 44.2703C230.788 42.9364 231.023 41.394 231.023 39.6432C231.023 37.8757 230.788 36.3333 230.318 35.0161C229.865 33.6821 229.151 32.6483 228.178 31.9146C227.204 31.1643 225.945 30.7891 224.401 30.7891C222.773 30.7891 221.429 31.1893 220.372 31.9897C219.314 32.7734 218.534 33.8405 218.03 35.1912C217.527 36.5251 217.275 38.0091 217.275 39.6432C217.275 41.294 217.518 42.7946 218.005 44.1453C218.509 45.4792 219.273 46.538 220.296 47.3217C221.32 48.1054 222.622 48.4973 224.199 48.4973ZM231.023 53.1494V34.1907H230.268V17.1329H236.387V53.1494H231.023Z" fill="black"/>
<path d="M46.0327 52.3678C53.6379 52.3678 59.8032 46.2439 59.8032 38.6896C59.8032 31.1354 53.6379 25.0115 46.0327 25.0115C38.4275 25.0115 32.2622 31.1354 32.2622 38.6896C32.2622 46.2439 38.4275 52.3678 46.0327 52.3678Z" stroke="#265DED" stroke-width="3"/>
<path d="M43.5682 40.8179L38.3028 38.6853C38.138 38.6322 38.0081 38.5259 37.9131 38.3664C37.8181 38.207 37.7705 38.0409 37.7705 37.8682C37.7705 37.6954 37.8212 37.5393 37.9226 37.3998C38.024 37.2603 38.1507 37.164 38.3028 37.1108L50.9246 32.1083C51.0767 32.0419 51.2192 32.0286 51.3523 32.0684C51.4853 32.1083 51.6089 32.1814 51.723 32.2876C51.8117 32.394 51.875 32.5202 51.913 32.6663C51.9511 32.8125 51.9384 32.9586 51.875 33.1048L47.1418 46.3386C47.0785 46.5379 46.974 46.6807 46.8282 46.7671C46.6825 46.8534 46.5336 46.8966 46.3815 46.8966C46.2167 46.8966 46.0615 46.8534 45.9158 46.7671C45.77 46.6807 45.6719 46.5445 45.6211 46.3585L43.5682 40.8179Z" fill="#265DED"/>
</svg>
