<svg width="131" height="37" viewBox="0 0 131 37" fill="none" xmlns="http://www.w3.org/2000/svg">
<path d="M7.87553 29.3278C6.51025 29.3278 5.3191 28.9876 4.30202 28.3071C3.28495 27.6267 2.49694 26.7012 1.93801 25.5308C1.37908 24.3604 1.09961 23.0404 1.09961 21.5706C1.09961 20.0826 1.37908 18.758 1.93801 17.5967C2.50611 16.4263 3.30785 15.5054 4.34326 14.834C5.37867 14.1536 6.59731 13.8133 7.99923 13.8133C9.41029 13.8133 10.5923 14.1536 11.5452 14.834C12.5073 15.5054 13.2358 16.4263 13.7306 17.5967C14.2254 18.7671 14.4728 20.0917 14.4728 21.5706C14.4728 23.0313 14.2254 24.3514 13.7306 25.5308C13.2358 26.7012 12.4982 27.6267 11.5178 28.3071C10.5373 28.9876 9.32327 29.3278 7.87553 29.3278ZM8.38407 26.3882C9.27285 26.3882 9.98755 26.1886 10.5282 25.7894C11.0779 25.3811 11.4765 24.8141 11.7239 24.0883C11.9805 23.3624 12.1088 22.5232 12.1088 21.5706C12.1088 20.6089 11.9805 19.7696 11.7239 19.0529C11.4765 18.327 11.0871 17.7645 10.5557 17.3653C10.0242 16.957 9.33702 16.7529 8.49402 16.7529C7.60524 16.7529 6.8722 16.9707 6.29494 17.4061C5.71768 17.8326 5.29161 18.4132 5.01672 19.1481C4.74184 19.874 4.6044 20.6814 4.6044 21.5706C4.6044 22.4688 4.73724 23.2853 5.00298 24.0202C5.27786 24.7461 5.69479 25.3221 6.25371 25.7486C6.81263 26.175 7.52278 26.3882 8.38407 26.3882ZM12.1088 28.9195V18.6038H11.6964V9.32229H15.0363V28.9195H12.1088ZM38.5656 28.9195L34.03 14.1944L37.2736 14.2216L40.1737 23.6528L43.115 14.2216H45.905L48.8326 23.6528L51.7464 14.2216H54.99L50.4544 28.9195H47.8705L44.5031 18.8079L41.1495 28.9195H38.5656ZM66.6378 28.9195V21.8427C66.6378 21.38 66.6056 20.8674 66.5416 20.3049C66.4776 19.7424 66.3264 19.2026 66.0881 18.6854C65.8591 18.1592 65.5108 17.7282 65.0435 17.3925C64.5852 17.0569 63.9624 16.889 63.1743 16.889C62.7529 16.889 62.3359 16.957 61.9236 17.0931C61.5112 17.2292 61.1354 17.4651 60.7965 17.8008C60.4667 18.1274 60.2008 18.5811 59.9994 19.1617C59.7979 19.7333 59.697 20.4682 59.697 21.3664L57.7315 20.5363C57.7315 19.2842 57.9742 18.1501 58.46 17.134C58.9548 16.1178 59.6785 15.3103 60.6316 14.7115C61.5847 14.1037 62.7572 13.7997 64.1501 13.7997C65.2497 13.7997 66.1568 13.9812 66.8715 14.3441C67.5862 14.707 68.1544 15.1697 68.5758 15.7322C68.9971 16.2947 69.3089 16.8935 69.5104 17.5286C69.7118 18.1637 69.8402 18.7671 69.8952 19.3387C69.9592 19.9012 69.9914 20.3593 69.9914 20.7132V28.9195H66.6378ZM56.3434 28.9195V14.2216H59.2984V18.7807H59.697V28.9195H56.3434ZM75.6399 28.9195L71.1043 14.1944L74.3479 14.2216L77.248 23.6528L80.1892 14.2216H82.9793L85.9069 23.6528L88.8206 14.2216H92.0643L87.5287 28.9195H84.9448L81.5774 18.8079L78.2238 28.9195H75.6399ZM93.72 11.9897V8.98206H97.0324V11.9897H93.72ZM93.72 28.9195V14.2216H97.0324V28.9195H93.72ZM110.317 28.9195V21.8427C110.317 21.38 110.284 20.8674 110.22 20.3049C110.156 19.7424 110.005 19.2026 109.767 18.6854C109.538 18.1592 109.19 17.7282 108.722 17.3925C108.264 17.0569 107.641 16.889 106.853 16.889C106.432 16.889 106.015 16.957 105.602 17.0931C105.19 17.2292 104.814 17.4651 104.475 17.8008C104.145 18.1274 103.88 18.5811 103.678 19.1617C103.477 19.7333 103.376 20.4682 103.376 21.3664L101.41 20.5363C101.41 19.2842 101.653 18.1501 102.139 17.134C102.634 16.1178 103.357 15.3103 104.31 14.7115C105.264 14.1037 106.436 13.7997 107.829 13.7997C108.928 13.7997 109.836 13.9812 110.55 14.3441C111.265 14.707 111.833 15.1697 112.255 15.7322C112.676 16.2947 112.988 16.8935 113.189 17.5286C113.391 18.1637 113.519 18.7671 113.574 19.3387C113.638 19.9012 113.67 20.3593 113.67 20.7132V28.9195H110.317ZM100.022 28.9195V14.2216H102.977V18.7807H103.376V28.9195H100.022ZM121.867 29.3278C120.502 29.3278 119.311 28.9876 118.293 28.3071C117.276 27.6267 116.488 26.7012 115.929 25.5308C115.371 24.3604 115.091 23.0404 115.091 21.5706C115.091 20.0826 115.371 18.758 115.929 17.5967C116.498 16.4263 117.299 15.5054 118.335 14.834C119.37 14.1536 120.589 13.8133 121.991 13.8133C123.402 13.8133 124.584 14.1536 125.537 14.834C126.499 15.5054 127.227 16.4263 127.722 17.5967C128.217 18.7671 128.464 20.0917 128.464 21.5706C128.464 23.0313 128.217 24.3514 127.722 25.5308C127.227 26.7012 126.49 27.6267 125.509 28.3071C124.529 28.9876 123.315 29.3278 121.867 29.3278ZM122.376 26.3882C123.264 26.3882 123.979 26.1886 124.52 25.7894C125.069 25.3811 125.468 24.8141 125.715 24.0883C125.972 23.3624 126.1 22.5232 126.1 21.5706C126.1 20.6089 125.972 19.7696 125.715 19.0529C125.468 18.327 125.078 17.7645 124.547 17.3653C124.016 16.957 123.329 16.7529 122.485 16.7529C121.597 16.7529 120.864 16.9707 120.286 17.4061C119.709 17.8326 119.283 18.4132 119.008 19.1481C118.733 19.874 118.596 20.6814 118.596 21.5706C118.596 22.4688 118.729 23.2853 118.994 24.0202C119.269 24.7461 119.686 25.3221 120.245 25.7486C120.804 26.175 121.514 26.3882 122.376 26.3882ZM126.1 28.9195V18.6038H125.688V9.32229H129.028V28.9195H126.1Z" fill="black"/>
<path d="M25.1263 28.4943C29.2774 28.4943 32.6426 25.1621 32.6426 21.0517C32.6426 16.9413 29.2774 13.6092 25.1263 13.6092C20.9751 13.6092 17.6099 16.9413 17.6099 21.0517C17.6099 25.1621 20.9751 28.4943 25.1263 28.4943Z" stroke="#265DED" stroke-width="3"/>
<path d="M23.781 22.2097L20.907 21.0493C20.8171 21.0204 20.7462 20.9626 20.6943 20.8758C20.6424 20.789 20.6165 20.6987 20.6165 20.6047C20.6165 20.5107 20.6441 20.4258 20.6995 20.3499C20.7548 20.274 20.824 20.2215 20.907 20.1926L27.7964 17.4707C27.8794 17.4345 27.9572 17.4273 28.0298 17.449C28.1025 17.4707 28.1699 17.5104 28.2322 17.5682C28.2806 17.6261 28.3152 17.6948 28.3359 17.7743C28.3567 17.8538 28.3498 17.9333 28.3152 18.0129L25.7316 25.2136C25.6971 25.322 25.64 25.3998 25.5605 25.4467C25.4809 25.4937 25.3996 25.5172 25.3166 25.5172C25.2267 25.5172 25.142 25.4937 25.0624 25.4467C24.9829 25.3998 24.9293 25.3257 24.9016 25.2244L23.781 22.2097Z" fill="#265DED"/>
</svg>
