<?xml version="1.0" encoding="utf-8"?>
<!DOCTYPE svg PUBLIC "-//W3C//DTD SVG 1.0//EN" "http://www.w3.org/TR/2001/REC-SVG-20010904/DTD/svg10.dtd">
<svg version="1.0" xmlns="http://www.w3.org/2000/svg" width="50px" height="50px" viewBox="0 0 50 50" preserveAspectRatio="xMidYMid meet">
 <g fill="none" stroke="#000000" stroke-width="0.25">
  <path d="M24.35 48.50 c-0.10 -0.55 -0.25 -1.08 -0.35 -1.13 -0.10 -0.08 -1.17 0.22 -2.38 0.63 -1.20 0.40 -2.75 0.82 -3.40 0.90 l-1.23 0.17 0 -0.88 c0 -1.25 0.63 -1.90 3.60 -3.70 1.45 -0.90 2.65 -1.73 2.65 -1.88 0 -0.15 -0.22 -1.83 -0.50 -3.75 -0.30 -2.15 -0.50 -4.88 -0.50 -7.05 l0 -3.58 -1 0 c-0.73 0 -1.08 0.13 -1.30 0.50 -0.38 0.57 -1.08 0.65 -1.27 0.13 -0.13 -0.28 -0.30 -0.30 -0.93 -0.10 -0.40 0.15 -0.75 0.43 -0.75 0.63 0 0.47 -0.68 0.73 -1.08 0.40 -0.47 -0.40 -1.42 -0.08 -1.42 0.47 0 0.60 -0.63 0.88 -1.10 0.50 -0.52 -0.43 -1.65 -0.08 -1.65 0.50 0 0.60 -0.68 0.90 -1.08 0.50 -0.43 -0.43 -0.68 -0.32 -0.68 0.22 0 0.55 -0.47 0.68 -0.93 0.22 -0.30 -0.30 -2.22 0.40 -5.78 2.08 -1.13 0.52 -2.17 0.90 -2.30 0.82 -0.38 -0.25 -0.30 -0.95 0.28 -2.22 0.55 -1.25 0.95 -1.60 4.70 -3.95 l2.25 -1.42 0.08 -1.95 0.08 -1.95 1.25 0 1.25 0 0.13 1.05 0.13 1.02 2.67 -1.65 2.67 -1.67 0.03 -1.90 c0 -2.08 0.10 -2.22 1.48 -2.22 0.90 0 1.27 0.43 1.27 1.42 0 0.45 0.05 0.82 0.13 0.82 0.08 0 0.75 -0.40 1.50 -0.90 l1.38 -0.93 0 -4.65 c0 -4.90 0.45 -7.90 1.42 -9.55 0.75 -1.25 1.90 -1.25 2.65 0 0.98 1.65 1.42 4.65 1.42 9.55 l0 4.65 1.38 0.93 c0.75 0.50 1.42 0.90 1.50 0.90 0.08 0 0.13 -0.38 0.13 -0.82 0 -1 0.38 -1.42 1.27 -1.42 1.38 0 1.48 0.15 1.48 2.22 l0.03 1.90 2.67 1.67 2.67 1.65 0.13 -1.02 0.13 -1.05 1.25 0 1.25 0 0.08 1.95 0.08 1.95 2.25 1.42 c3.75 2.35 4.15 2.70 4.70 3.95 0.85 1.92 0.50 2.83 -0.77 2 -0.60 -0.38 -5.38 -2.45 -6.38 -2.75 -0.35 -0.13 -0.57 -0.08 -0.57 0.08 0 0.15 -0.22 0.28 -0.50 0.28 -0.32 0 -0.50 -0.17 -0.50 -0.50 0 -0.55 -0.25 -0.65 -0.68 -0.22 -0.40 0.40 -1.08 0.10 -1.08 -0.50 0 -0.57 -1.13 -0.93 -1.65 -0.50 -0.47 0.38 -1.10 0.10 -1.10 -0.50 0 -0.55 -0.95 -0.88 -1.42 -0.47 -0.40 0.32 -1.08 0.08 -1.08 -0.40 0 -0.20 -0.35 -0.47 -0.75 -0.63 -0.63 -0.20 -0.80 -0.17 -0.93 0.10 -0.17 0.52 -0.73 0.47 -1.33 -0.13 -0.30 -0.30 -0.82 -0.50 -1.38 -0.50 l-0.88 0 0 3.70 c0 2.35 -0.20 4.85 -0.50 6.93 -0.28 1.80 -0.50 3.42 -0.50 3.63 0 0.22 1.15 1.08 2.65 2 2.97 1.80 3.60 2.45 3.60 3.65 0 0.77 -0.08 0.85 -0.75 0.85 -0.43 0 -1.95 -0.40 -3.42 -0.88 -1.48 -0.47 -2.75 -0.80 -2.83 -0.75 -0.10 0.08 -0.25 0.57 -0.35 1.13 -0.13 0.77 -0.28 1 -0.65 1 -0.38 0 -0.52 -0.22 -0.65 -1z"/>
 </g>
</svg>