<?xml version="1.0" encoding="utf-8"?>
<!DOCTYPE svg PUBLIC "-//W3C//DTD SVG 1.0//EN" "http://www.w3.org/TR/2001/REC-SVG-20010904/DTD/svg10.dtd">
<svg version="1.0" xmlns="http://www.w3.org/2000/svg" width="50px" height="50px" viewBox="0 0 50 50" preserveAspectRatio="xMidYMid meet">
 <g fill="none" stroke="#000000" stroke-width="0.046">
  <path d="M15.39 29.38C15.30 29.23 15.28 29 15.26 28.83C15.24 28.75 15.23 28.63 15.16 28.60C15.13 28.57 15.07 28.60 15.04 28.62C14.93 28.65 14.83 28.70 14.72 28.73C14.38 28.87 14.04 29.01 13.71 29.14C13.61 29.19 13.52 29.23 13.42 29.27C13.38 29.29 13.32 29.30 13.30 29.34C13.25 29.39 13.24 29.48 13.23 29.54C13.21 29.70 13.17 29.86 13.14 30.02C13.14 30.06 13.13 30.24 13.09 30.26C13.03 30.27 13.01 30.12 13 30.09C12.96 29.95 12.92 29.81 12.88 29.67C12.87 29.64 12.86 29.55 12.81 29.54C12.78 29.54 12.72 29.55 12.69 29.57C12.59 29.60 12.49 29.64 12.39 29.67C12.03 29.80 11.67 29.93 11.32 30.09C11.22 30.14 11.04 30.17 10.97 30.26C10.94 30.33 10.94 30.42 10.93 30.49C10.91 30.63 10.90 30.77 10.89 30.90C10.88 30.97 10.88 31.07 10.85 31.14L10.84 31.14C10.69 30.92 10.76 30.58 10.55 30.40C10.53 30.38 10.52 30.36 10.49 30.35C10.42 30.32 10.30 30.38 10.24 30.41C10.02 30.50 9.81 30.60 9.60 30.69C8.72 31.07 7.86 31.48 6.99 31.85C6.61 32.01 6.24 32.19 5.87 32.35C5.77 32.40 5.58 32.53 5.48 32.49C5.45 32.48 5.43 32.42 5.40 32.40C5.36 32.48 5.42 32.61 5.36 32.69C5.32 32.73 5.23 32.75 5.17 32.77C5.02 32.84 4.87 32.91 4.72 32.97C4.14 33.23 3.56 33.45 3 33.73C2.88 33.80 2.70 33.86 2.61 33.96C2.55 34.04 2.51 34.21 2.42 34.25C2.40 34.16 2.44 34.03 2.46 33.94C2.50 33.72 2.53 33.49 2.57 33.26C2.66 32.72 2.70 32.13 2.96 31.65C3.22 31.18 3.68 30.85 4.10 30.54C5.56 29.47 7.02 28.42 8.48 27.34C8.96 26.99 9.44 26.64 9.93 26.28C10.10 26.15 10.32 26.03 10.48 25.87C10.54 25.83 10.49 25.77 10.44 25.74C10.37 25.69 10.28 25.72 10.23 25.67C10.19 25.64 10.18 25.56 10.17 25.52C10.15 25.39 10.13 25.27 10.11 25.15C10.02 24.49 10.01 23.83 10.01 23.18C10.01 22.99 10.01 22.80 10.05 22.60C10.05 22.54 10.06 22.45 10.11 22.40C10.16 22.32 10.26 22.30 10.35 22.30C10.53 22.28 10.73 22.27 10.91 22.29C11.15 22.30 11.40 22.30 11.65 22.30C11.78 22.30 11.93 22.32 12.01 22.42C12.12 22.55 12.11 22.76 12.12 22.91C12.15 23.30 12.13 23.69 12.13 24.07C12.13 24.24 12.10 24.47 12.16 24.64C12.29 24.59 12.41 24.47 12.52 24.39C12.74 24.23 12.95 24.07 13.17 23.92C13.90 23.39 14.62 22.85 15.34 22.30C15.61 22.10 15.88 21.89 16.16 21.68C16.25 21.61 16.42 21.53 16.48 21.43C16.49 21.39 16.46 21.38 16.43 21.38C16.37 21.36 16.28 21.38 16.25 21.32C16.16 21.17 16.16 20.90 16.14 20.73C16.09 20.22 16.09 19.70 16.08 19.18C16.08 18.87 16.05 18.54 16.12 18.23C16.17 18.01 16.31 17.98 16.52 17.95C16.86 17.91 17.23 17.93 17.57 17.96C17.71 17.97 17.95 17.98 18.04 18.11C18.08 18.15 18.08 18.22 18.08 18.28C18.09 18.39 18.09 18.51 18.10 18.62C18.12 18.94 18.13 19.27 18.13 19.60C18.13 19.72 18.14 19.83 18.14 19.95C18.14 20.02 18.13 20.10 18.15 20.17C18.29 20.12 18.41 19.99 18.52 19.90C18.80 19.70 19.06 19.49 19.33 19.28C20.21 18.60 21.08 17.91 21.92 17.17C22.21 16.91 22.51 16.65 22.77 16.35C22.86 16.24 23 16.08 23.03 15.95C23.05 15.88 23.04 15.81 23.04 15.75L23.04 15.33L23.04 13.96C23.04 12.60 23.06 11.23 23.25 9.87C23.42 8.68 23.58 7.41 24.13 6.32C24.26 6.04 24.44 5.76 24.69 5.56C24.79 5.46 24.92 5.38 25.06 5.39C25.36 5.41 25.61 5.77 25.77 5.99C26.21 6.67 26.45 7.51 26.58 8.31C26.74 9.21 26.87 10.10 26.96 11.01C27.02 11.74 27.04 12.47 27.05 13.20C27.06 13.83 27.05 14.47 27.05 15.11L27.05 15.66C27.05 15.75 27.03 15.86 27.06 15.93C27.09 16.04 27.19 16.16 27.25 16.26C27.49 16.58 27.80 16.83 28.09 17.09C29.02 17.92 29.99 18.68 30.97 19.44C31.21 19.62 31.45 19.81 31.68 19.98L31.86 20.12C31.88 20.13 31.90 20.16 31.93 20.15C31.96 20.15 31.95 20.11 31.95 20.09C31.95 20.02 31.95 19.95 31.95 19.88L31.95 18.99C31.95 18.79 31.96 18.60 31.98 18.40C31.99 18.30 31.99 18.18 32.05 18.10C32.15 17.97 32.35 17.96 32.50 17.94C32.77 17.91 33.05 17.91 33.32 17.91C33.50 17.91 33.71 17.91 33.86 18C33.94 18.04 33.96 18.11 33.98 18.20C34.02 18.37 34.03 18.56 34.03 18.73C34.03 19.45 34.02 20.15 33.93 20.87C33.92 20.98 33.91 21.10 33.89 21.21C33.89 21.26 33.90 21.31 33.86 21.34C33.81 21.38 33.72 21.36 33.65 21.37C33.62 21.38 33.57 21.40 33.61 21.44C33.70 21.54 33.83 21.61 33.93 21.69C34.15 21.86 34.38 22.02 34.60 22.19C35.35 22.75 36.09 23.29 36.84 23.84C37.09 24.03 37.36 24.23 37.62 24.41C37.69 24.46 37.76 24.51 37.82 24.55C37.84 24.57 37.88 24.60 37.91 24.59C37.95 24.58 37.95 24.50 37.95 24.46C37.96 24.33 37.95 24.20 37.95 24.06C37.95 23.70 37.95 23.34 37.97 22.98C37.98 22.80 37.97 22.59 38.04 22.41C38.10 22.30 38.26 22.31 38.36 22.31C38.64 22.31 38.93 22.29 39.21 22.29C39.36 22.29 39.53 22.29 39.68 22.29C39.77 22.29 39.88 22.28 39.95 22.35C40.03 22.42 40.04 22.52 40.05 22.62C40.06 22.79 40.06 22.96 40.06 23.12C40.07 23.83 40.07 24.54 39.98 25.24C39.96 25.37 39.95 25.62 39.83 25.70C39.77 25.74 39.71 25.73 39.64 25.75C39.60 25.76 39.57 25.78 39.61 25.83C39.64 25.88 39.72 25.93 39.77 25.97C39.90 26.07 40.03 26.17 40.15 26.27C40.57 26.58 40.99 26.88 41.41 27.19C42.57 28.04 43.73 28.90 44.90 29.74C45.27 30.02 45.65 30.29 46.02 30.56C46.28 30.76 46.56 30.94 46.78 31.17C46.95 31.37 47.10 31.58 47.21 31.83C47.41 32.32 47.46 32.89 47.54 33.41C47.58 33.60 47.61 33.78 47.64 33.97C47.65 34.05 47.68 34.13 47.62 34.20C47.57 34.11 47.53 34.02 47.45 33.94C47.39 33.89 47.31 33.87 47.24 33.83C47.09 33.76 46.96 33.67 46.80 33.61C46.41 33.42 46.01 33.24 45.61 33.07C45.18 32.88 44.77 32.66 44.34 32.46C43.42 32.04 42.49 31.64 41.56 31.23C41.14 31.04 40.70 30.87 40.28 30.68C40.12 30.61 39.88 30.56 39.75 30.43C39.66 30.35 39.70 30.22 39.64 30.13C39.59 30.19 39.59 30.28 39.56 30.36C39.54 30.41 39.50 30.46 39.47 30.51C39.43 30.62 39.39 30.74 39.36 30.86C39.34 30.98 39.33 31.16 39.24 31.27L39.23 31.27C39.11 30.97 39.24 30.60 39.11 30.32C39.04 30.19 38.84 30.15 38.72 30.10C38.39 29.95 38.04 29.82 37.70 29.69C37.60 29.65 37.50 29.62 37.39 29.59C37.35 29.58 37.30 29.55 37.26 29.57C37.21 29.60 37.20 29.74 37.19 29.78C37.14 29.96 37.14 30.22 37.03 30.37L37.02 30.37C36.98 30.30 36.97 30.20 36.95 30.12C36.91 29.95 36.89 29.78 36.86 29.62C36.85 29.55 36.84 29.47 36.81 29.41C36.76 29.31 36.52 29.24 36.42 29.20C36.07 29.04 35.71 28.89 35.36 28.73C35.25 28.69 35.14 28.64 35.03 28.61C35 28.60 34.95 28.56 34.91 28.58C34.87 28.61 34.86 28.75 34.85 28.80C34.82 28.94 34.79 29.08 34.76 29.23C34.74 29.29 34.74 29.37 34.68 29.42C34.64 29.34 34.64 29.23 34.63 29.14C34.60 28.98 34.57 28.82 34.54 28.65C34.53 28.59 34.54 28.47 34.49 28.42C34.46 28.38 34.40 28.37 34.35 28.35C34.24 28.31 34.14 28.26 34.03 28.22C33.70 28.09 33.36 27.95 33.02 27.82C32.91 27.78 32.74 27.68 32.61 27.69C32.59 27.69 32.58 27.72 32.57 27.75C32.55 27.82 32.54 27.89 32.50 27.96C32.49 27.98 32.46 28.03 32.42 28.02C32.39 28.01 32.37 27.91 32.36 27.88C32.32 27.75 32.30 27.58 32.19 27.50C32.05 27.39 31.84 27.34 31.68 27.28C31.39 27.16 31.10 27.07 30.81 26.98C30.66 26.94 30.51 26.89 30.36 26.87C30.25 26.85 30.20 27.08 30.15 27.16C30.14 27.19 30.11 27.27 30.06 27.26C30.02 27.24 29.99 27.16 29.97 27.12C29.93 27.02 29.89 26.91 29.85 26.81C29.84 26.77 29.83 26.71 29.78 26.68C29.71 26.65 29.61 26.64 29.53 26.61C29.33 26.56 29.13 26.49 28.93 26.44C28.40 26.28 27.87 26.12 27.34 25.97C27.25 26.18 27.30 26.48 27.29 26.71C27.25 27.19 27.20 27.67 27.16 28.14C27.11 28.53 27.08 28.92 27.06 29.31C27.03 29.91 27.06 30.52 27.04 31.12C27 32.50 26.96 33.87 26.87 35.25C26.82 35.93 26.73 36.62 26.60 37.30C26.54 37.66 26.38 38.04 26.56 38.40C26.68 38.64 26.89 38.83 27.09 39.01C27.40 39.28 27.73 39.54 28.06 39.79C29.12 40.61 30.18 41.44 31.24 42.26C31.68 42.60 32.12 42.94 32.56 43.29C32.84 43.51 33.17 43.73 33.36 44.04C33.62 44.45 33.68 45.01 33.77 45.48C33.83 45.78 33.90 46.07 33.95 46.38C33.97 46.45 33.98 46.51 33.99 46.58C34 46.61 34.01 46.65 33.98 46.67C33.95 46.69 33.88 46.64 33.85 46.63C33.73 46.58 33.61 46.53 33.49 46.48C32.99 46.29 32.48 46.09 31.97 45.91C30.53 45.37 29.10 44.80 27.66 44.25C27.20 44.08 26.76 43.90 26.30 43.73C26.07 43.64 25.83 43.54 25.59 43.47C25.50 43.68 25.47 43.93 25.41 44.16C25.36 44.39 25.26 44.63 25.24 44.85C25.19 45.27 25.22 45.70 25.20 46.12C25.18 46.59 25.15 47.08 25.15 47.55C25.14 47.96 25.10 48.36 25.10 48.77C25.10 48.88 25.09 49 25.08 49.11C25.08 49.18 25.09 49.25 25.05 49.32C24.98 49.20 25 48.99 25 48.85C25 48.57 24.97 48.28 24.96 48C24.95 47.33 24.92 46.68 24.89 46.01C24.87 45.58 24.90 45.14 24.83 44.72C24.81 44.63 24.77 44.54 24.74 44.44C24.69 44.22 24.64 43.99 24.57 43.76C24.55 43.66 24.54 43.52 24.47 43.45C24.38 43.52 24.23 43.56 24.13 43.60L23.41 43.87C22.62 44.17 21.85 44.48 21.07 44.77C20.33 45.05 19.60 45.34 18.86 45.62C18.17 45.89 17.48 46.16 16.78 46.42C16.60 46.48 16.44 46.56 16.27 46.61C16.23 46.63 16.13 46.68 16.10 46.66C16.07 46.64 16.10 46.57 16.10 46.54C16.13 46.42 16.15 46.29 16.17 46.17C16.28 45.66 16.38 45.16 16.50 44.66C16.55 44.45 16.60 44.23 16.72 44.04C16.85 43.84 17.04 43.68 17.22 43.53C17.49 43.31 17.77 43.09 18.04 42.88C19.28 41.91 20.52 40.96 21.76 39.99C22.26 39.61 22.81 39.24 23.23 38.78C23.40 38.61 23.59 38.39 23.61 38.13C23.62 37.94 23.57 37.75 23.53 37.57C23.49 37.31 23.43 37.05 23.39 36.79C23.27 36.10 23.22 35.40 23.18 34.70C23.10 33.46 23.07 32.22 23.05 30.98C23.04 30.47 23.05 29.96 23.03 29.45C23.02 29.23 23.03 29.01 23 28.78C22.90 28.09 22.85 27.39 22.79 26.69C22.77 26.52 22.77 26.36 22.76 26.18C22.76 26.14 22.77 26.03 22.73 25.99C22.70 25.96 22.62 26 22.59 26.01L22.16 26.14C21.71 26.27 21.27 26.39 20.83 26.54C20.71 26.58 20.59 26.60 20.47 26.64C20.42 26.66 20.35 26.67 20.30 26.69C20.26 26.72 20.25 26.79 20.23 26.83C20.19 26.93 20.15 27.03 20.10 27.13C20.08 27.17 20.06 27.24 20.02 27.26C19.97 27.27 19.94 27.18 19.93 27.15C19.89 27.07 19.85 26.84 19.73 26.85C19.59 26.87 19.44 26.93 19.31 26.97C18.98 27.07 18.65 27.17 18.33 27.30C18.19 27.36 17.99 27.40 17.85 27.50C17.82 27.52 17.81 27.57 17.81 27.60C17.78 27.70 17.75 27.80 17.71 27.89C17.70 27.92 17.69 28 17.64 28.01C17.60 28.03 17.59 27.96 17.58 27.93C17.56 27.87 17.55 27.68 17.46 27.68C17.31 27.70 17.14 27.79 17 27.84C16.68 27.96 16.36 28.09 16.04 28.21C15.93 28.26 15.81 28.31 15.70 28.36C15.66 28.38 15.60 28.41 15.57 28.44C15.54 28.51 15.54 28.62 15.53 28.69C15.49 28.91 15.50 29.20 15.39 29.40M39.64 30.02L39.64 30.13M5.40 32.30L5.40 32.40M47.67 34.18L47.67 34.30M47.62 34.21L47.65 34.23M2.43 34.25L2.39 34.35M25.66 43.25L25.59 43.47M24.44 43.28L24.47 43.44M25.62 43.42L25.64 43.47M25.05 49.33L25.05 49.38"/>
 </g>
</svg>