<?xml version="1.0" encoding="utf-8"?>
<!DOCTYPE svg PUBLIC "-//W3C//DTD SVG 1.0//EN" "http://www.w3.org/TR/2001/REC-SVG-20010904/DTD/svg10.dtd">
<svg version="1.0" xmlns="http://www.w3.org/2000/svg" width="50px" height="50px" viewBox="0 0 50 50" preserveAspectRatio="xMidYMid meet">
 <g fill="none" stroke="#000000" stroke-width="0.069">
  <path d="M24.96 1.37C25.07 1.35 25.19 1.42 25.29 1.47C25.59 1.60 25.81 1.83 26.01 2.08C26.44 2.63 26.70 3.31 26.92 3.97C27.08 4.42 27.23 4.88 27.33 5.35C27.41 5.77 27.39 6.21 27.41 6.63C27.44 7.39 27.44 8.15 27.47 8.90C27.51 9.94 27.50 10.99 27.53 12.03C27.56 13.38 27.58 14.72 27.58 16.07C27.58 16.63 27.57 17.19 27.57 17.74L27.57 18.25C27.57 18.32 27.55 18.40 27.57 18.47C27.58 18.55 27.65 18.63 27.69 18.69L27.94 19.15C28.03 19.31 28.13 19.46 28.20 19.63C28.23 19.69 28.24 19.78 28.30 19.81C28.36 19.84 28.44 19.84 28.50 19.84C28.69 19.87 28.90 19.86 29.10 19.86C29.74 19.88 30.38 19.87 31.02 19.87L31.63 19.87C31.68 19.87 31.81 19.89 31.84 19.85C31.88 19.81 31.86 19.71 31.86 19.65C31.88 19.47 31.88 19.29 31.89 19.11C31.92 18.69 31.93 18.27 31.92 17.85C31.92 17.69 31.88 17.53 31.89 17.36C31.90 17.25 31.93 17.14 31.97 17.05C32 17 32.06 16.93 32.05 16.88C32.05 16.83 31.97 16.84 31.94 16.84C31.82 16.84 31.70 16.85 31.60 16.84C31.16 16.81 30.71 16.82 30.28 16.81C30.15 16.79 29.88 16.75 29.97 16.56C29.99 16.51 30.03 16.51 30.08 16.51C30.19 16.49 30.29 16.49 30.40 16.47C30.88 16.42 31.38 16.49 31.86 16.46C31.94 16.44 32.06 16.46 32.13 16.40C32.17 16.35 32.17 16.28 32.19 16.22C32.24 16.09 32.31 15.98 32.37 15.86C32.42 15.78 32.51 15.58 32.60 15.57C32.67 15.57 32.74 15.64 32.78 15.69C32.92 15.84 33.02 16.03 33.07 16.22C33.09 16.28 33.10 16.42 33.16 16.46C33.19 16.47 33.24 16.47 33.28 16.47L33.59 16.47C33.97 16.47 34.38 16.46 34.76 16.49C34.90 16.49 35.22 16.47 35.28 16.63C35.31 16.69 35.24 16.72 35.19 16.74C35.08 16.78 34.94 16.79 34.84 16.79C34.43 16.81 34.01 16.78 33.61 16.82C33.51 16.83 33.42 16.82 33.32 16.83C33.29 16.83 33.25 16.82 33.22 16.84C33.18 16.88 33.24 16.97 33.25 17C33.32 17.16 33.36 17.31 33.36 17.49C33.36 17.81 33.33 18.13 33.34 18.44C33.35 18.69 33.38 18.96 33.38 19.22C33.38 19.38 33.38 19.54 33.41 19.70C33.41 19.74 33.39 19.82 33.43 19.85C33.47 19.90 33.61 19.87 33.67 19.87C33.89 19.87 34.10 19.88 34.31 19.90C35.21 19.99 36.09 20.05 36.98 20.13C40.44 20.47 43.92 20.74 47.38 21.08C47.90 21.13 48.41 21.19 48.92 21.24C49.08 21.25 49.22 21.26 49.36 21.28C49.43 21.28 49.50 21.30 49.56 21.33C49.64 21.38 49.65 21.47 49.65 21.56C49.65 21.69 49.66 21.84 49.69 21.98C49.77 22.41 49.94 22.85 49.99 23.27C50 23.41 49.96 23.53 49.94 23.67C49.94 23.78 49.94 23.90 49.92 24.01C49.92 24.06 49.93 24.11 49.90 24.15C49.86 24.19 49.67 24.17 49.61 24.17C49.34 24.17 49.06 24.22 48.80 24.22C47.74 24.22 46.68 24.28 45.63 24.28C44.32 24.28 43.02 24.32 41.72 24.35C40.73 24.38 39.73 24.36 38.74 24.38C36.83 24.43 34.92 24.43 33.01 24.44C31.82 24.45 30.63 24.46 29.44 24.46C29.15 24.46 28.85 24.47 28.57 24.47C28.51 24.47 28.31 24.44 28.27 24.49C28.25 24.51 28.26 24.56 28.26 24.59C28.26 24.67 28.26 24.76 28.26 24.84C28.25 25.01 28.17 25.19 28.11 25.35C28.02 25.56 27.92 25.77 27.79 25.97C27.72 26.08 27.58 26.19 27.56 26.32C27.47 26.69 27.51 27.11 27.51 27.50C27.51 28.23 27.51 28.96 27.53 29.69C27.53 30.79 27.56 31.89 27.56 32.99C27.56 33.59 27.58 34.19 27.53 34.79C27.49 35.17 27.37 35.56 27.30 35.95C27.10 37.19 26.85 38.42 26.67 39.66C26.51 40.79 26.33 41.92 26.17 43.06C26.12 43.36 26.07 43.66 26.03 43.97C26.01 44.06 25.96 44.24 25.99 44.32C26.02 44.38 26.25 44.38 26.31 44.38C26.65 44.42 26.97 44.43 27.31 44.46C28.30 44.56 29.31 44.61 30.29 44.71C30.56 44.73 30.81 44.75 31.07 44.79C31.21 44.81 31.38 44.83 31.49 44.91C31.56 44.96 31.60 45.05 31.65 45.12C31.85 45.42 31.86 45.69 31.89 46.04C31.90 46.14 31.90 46.24 31.91 46.33C31.91 46.37 31.93 46.42 31.90 46.44C31.86 46.47 31.79 46.47 31.75 46.47C31.65 46.47 31.53 46.49 31.42 46.51C31.03 46.56 30.63 46.60 30.24 46.65C28.82 46.84 27.40 47.03 25.97 47.18C25.87 47.19 25.76 47.21 25.66 47.22C25.61 47.22 25.56 47.22 25.52 47.26C25.44 47.36 25.45 47.53 25.40 47.65C25.33 47.76 25.24 47.78 25.14 47.86C25.10 47.90 25.07 47.99 25.01 47.99C24.94 47.99 24.91 47.90 24.86 47.86C24.77 47.79 24.66 47.76 24.60 47.65C24.54 47.53 24.56 47.37 24.47 47.26C24.44 47.22 24.38 47.22 24.32 47.22C24.19 47.20 24.06 47.19 23.94 47.17C22.49 47 21.04 46.81 19.59 46.63C19.22 46.60 18.85 46.54 18.48 46.49C18.38 46.49 18.29 46.47 18.19 46.47C18.16 46.46 18.11 46.47 18.09 46.44C18.07 46.42 18.08 46.38 18.08 46.35C18.08 46.26 18.10 46.16 18.10 46.07C18.13 45.67 18.16 45.21 18.49 44.92C18.59 44.84 18.75 44.82 18.87 44.80C19.13 44.75 19.41 44.73 19.69 44.71C20.69 44.64 21.69 44.56 22.69 44.46C23.02 44.43 23.36 44.42 23.69 44.38C23.76 44.38 23.99 44.38 24.01 44.32C24.04 44.24 23.99 44.06 23.97 43.97C23.94 43.68 23.89 43.37 23.83 43.07C23.67 41.98 23.52 40.90 23.35 39.81C23.15 38.53 22.92 37.26 22.71 35.98C22.64 35.58 22.51 35.19 22.48 34.80C22.42 34.28 22.43 33.76 22.43 33.23C22.43 32.67 22.42 32.11 22.43 31.56L22.44 29.86C22.44 29.52 22.44 29.17 22.47 28.83C22.48 28.73 22.47 28.61 22.47 28.50C22.49 28.08 22.49 27.65 22.50 27.24C22.50 27.09 22.50 26.94 22.51 26.79C22.51 26.69 22.53 26.58 22.51 26.49C22.48 26.35 22.35 26.21 22.28 26.09C22.13 25.86 21.99 25.61 21.88 25.36C21.79 25.17 21.74 24.97 21.74 24.76C21.74 24.70 21.76 24.52 21.72 24.48C21.67 24.44 21.47 24.47 21.40 24.47C21.13 24.47 20.84 24.46 20.56 24.46C19.47 24.46 18.39 24.44 17.30 24.44C15.90 24.44 14.51 24.42 13.11 24.40C11.95 24.39 10.79 24.39 9.63 24.36C8.48 24.33 7.34 24.34 6.19 24.31C5.80 24.31 5.40 24.32 5.01 24.29C4.52 24.26 4.01 24.28 3.51 24.27C2.78 24.25 2.03 24.22 1.30 24.22C1 24.22 0.69 24.18 0.40 24.17C0.33 24.17 0.12 24.19 0.10 24.13C0.05 24.03 0.07 23.85 0.06 23.74C0.03 23.54 0.03 23.33 0.05 23.13C0.10 22.76 0.24 22.40 0.31 22.02C0.33 21.85 0.33 21.68 0.35 21.51C0.36 21.44 0.36 21.37 0.43 21.33C0.53 21.26 0.67 21.28 0.78 21.26C1.01 21.24 1.23 21.22 1.46 21.19C2.32 21.11 3.17 21.03 4.03 20.95C7.03 20.66 10.03 20.42 13.01 20.13C13.90 20.03 14.80 19.96 15.69 19.90C15.91 19.89 16.13 19.87 16.35 19.87C16.40 19.87 16.54 19.89 16.58 19.85C16.60 19.82 16.60 19.71 16.60 19.66C16.60 19.52 16.60 19.38 16.61 19.24C16.65 18.78 16.67 18.31 16.65 17.85C16.65 17.72 16.63 17.58 16.63 17.46C16.63 17.29 16.70 17.12 16.76 16.96C16.77 16.92 16.82 16.82 16.78 16.79C16.74 16.76 16.67 16.76 16.63 16.76C16.53 16.75 16.44 16.75 16.33 16.75C15.94 16.75 15.54 16.78 15.15 16.78C15.03 16.78 14.64 16.81 14.68 16.60C14.69 16.54 14.75 16.53 14.79 16.51C14.91 16.49 15.05 16.47 15.17 16.47C15.68 16.47 16.21 16.47 16.72 16.47C16.75 16.47 16.81 16.47 16.84 16.46C16.90 16.42 16.91 16.25 16.93 16.19C16.98 16.01 17.08 15.83 17.21 15.69C17.25 15.64 17.31 15.58 17.38 15.57C17.46 15.57 17.51 15.69 17.56 15.75C17.65 15.89 17.74 16.04 17.79 16.19C17.81 16.26 17.83 16.37 17.88 16.40C17.97 16.49 18.18 16.46 18.30 16.46C18.69 16.47 19.08 16.47 19.46 16.47C19.59 16.47 19.74 16.49 19.87 16.53C19.92 16.53 19.99 16.56 20.01 16.63C20.01 16.67 19.96 16.69 19.92 16.70C19.80 16.74 19.68 16.74 19.56 16.74C19.15 16.74 18.74 16.74 18.33 16.74L18.03 16.74C18 16.74 17.95 16.74 17.93 16.76C17.92 16.78 17.93 16.83 17.94 16.86C17.97 16.97 18.06 17.04 18.09 17.14C18.13 17.23 18.11 17.35 18.11 17.44C18.11 17.65 18.08 17.86 18.07 18.08C18.06 18.48 18.08 18.88 18.11 19.27C18.13 19.45 18.11 19.65 18.14 19.83C18.15 19.90 18.28 19.87 18.33 19.87L18.94 19.87C19.63 19.87 20.31 19.86 20.99 19.86C21.17 19.86 21.35 19.86 21.53 19.84C21.58 19.84 21.67 19.84 21.72 19.80C21.75 19.76 21.76 19.69 21.78 19.64C21.84 19.52 21.90 19.40 21.97 19.28C22.05 19.13 22.14 18.99 22.22 18.83C22.27 18.76 22.33 18.68 22.35 18.60C22.37 18.54 22.36 18.46 22.36 18.40C22.37 18.21 22.36 18.02 22.37 17.83C22.42 17.11 22.41 16.37 22.41 15.63C22.41 13.96 22.44 12.27 22.47 10.59C22.49 9.01 22.43 7.41 22.60 5.84C22.65 5.26 22.83 4.70 23 4.15C23.21 3.53 23.44 2.92 23.80 2.36C24.06 1.94 24.44 1.47 24.96 1.37"/>
 </g>
</svg>