<?xml version="1.0" encoding="utf-8"?>
<!DOCTYPE svg PUBLIC "-//W3C//DTD SVG 1.0//EN" "http://www.w3.org/TR/2001/REC-SVG-20010904/DTD/svg10.dtd">
<svg version="1.0" xmlns="http://www.w3.org/2000/svg" width="50px" height="58px" viewBox="0 0 50 58" preserveAspectRatio="xMidYMid meet">
 <g fill="none" stroke="#000000" stroke-width="0.062">
  <path d="M32.30 24.21C32.33 24.14 32.31 24.06 32.32 23.98C32.34 23.80 32.34 23.61 32.34 23.43C32.34 22.91 32.35 22.39 32.37 21.88C32.37 21.61 32.37 21.21 32.55 21C32.91 20.61 33.48 20.69 33.95 20.72C34.14 20.74 34.32 20.74 34.49 20.81C34.65 20.87 34.78 20.99 34.88 21.12C34.97 21.24 34.96 21.36 34.97 21.50C34.98 21.69 34.98 21.88 34.99 22.06C35.05 22.94 35.01 23.82 35.01 24.70L35.01 25.57C35.01 25.65 34.97 25.82 35.04 25.87C35.15 25.96 35.29 26.03 35.41 26.12C35.69 26.30 35.98 26.49 36.26 26.67C37.17 27.29 38.09 27.89 39.01 28.48C41.62 30.19 44.23 31.91 46.83 33.62C47.50 34.06 48.17 34.51 48.84 34.96L49.44 35.36C49.52 35.41 49.64 35.46 49.70 35.53C49.73 35.58 49.71 35.66 49.71 35.70L49.71 36.13L49.71 37.45C49.71 37.61 49.71 37.76 49.70 37.90C49.70 37.94 49.70 37.99 49.69 38.04C49.67 38.07 49.63 38.07 49.60 38.05C49.52 38.04 49.44 38 49.36 37.98C49.01 37.86 48.68 37.73 48.34 37.60C47.34 37.22 46.34 36.83 45.34 36.43C45.04 36.31 44.75 36.19 44.45 36.07C44.33 36.01 44.16 35.92 44.04 35.90C44 35.90 43.97 35.95 43.95 35.98C43.90 36.04 43.81 36.19 43.72 36.18C43.59 36.16 43.46 36.10 43.32 36.07C43.05 35.99 42.76 35.90 42.49 35.82C42.39 35.79 42.27 35.76 42.16 35.73C42.12 35.71 42.07 35.69 42.02 35.69C41.98 35.69 41.95 35.74 41.91 35.76C41.83 35.84 41.71 36 41.58 35.96C41.49 35.94 41.45 35.82 41.41 35.75C41.33 35.59 41.28 35.45 41.11 35.38C40.78 35.24 40.41 35.16 40.07 35.06C39.39 34.85 38.71 34.63 38.03 34.44C37.90 34.40 37.68 34.31 37.53 34.37C37.43 34.41 37.41 34.66 37.27 34.60C37.17 34.57 37.11 34.44 37.06 34.35C36.99 34.21 36.91 34.12 36.77 34.06C36.29 33.85 35.77 33.73 35.29 33.58L34.89 33.46C34.82 33.44 34.75 33.42 34.68 33.38C34.56 33.30 34.64 33.05 34.63 32.93C34.63 32.90 34.63 32.83 34.60 32.80C34.58 32.78 34.52 32.78 34.50 32.76C34.40 32.74 34.31 32.73 34.21 32.71C33.97 32.65 33.73 32.60 33.48 32.55C33.34 32.53 33.20 32.49 33.05 32.48C32.79 32.47 32.96 32.87 32.83 33.01C32.63 33.22 32.25 33.01 32.04 33.16C31.96 33.22 31.95 33.33 31.91 33.41C31.91 33.44 31.89 33.50 31.85 33.51C31.79 33.51 31.77 33.41 31.75 33.36C31.71 33.26 31.69 33.03 31.55 32.99C31.28 32.92 30.95 32.91 30.67 32.89C30.04 32.83 29.41 32.78 28.78 32.70C28.54 32.68 28.30 32.65 28.07 32.64C28.01 32.64 27.87 32.60 27.83 32.64C27.80 32.66 27.81 32.71 27.81 32.74C27.79 32.85 27.79 32.96 27.79 33.07C27.79 33.46 27.77 33.87 27.77 34.27C27.77 35.89 27.76 37.50 27.76 39.12C27.76 41.60 27.74 44.08 27.58 46.54C27.52 47.34 27.41 48.13 27.35 48.93C27.33 49.30 27.26 49.74 27.40 50.11C27.52 50.38 27.74 50.60 27.96 50.79C28.31 51.10 28.69 51.39 29.07 51.67C30.46 52.71 31.91 53.69 33.31 54.72C33.69 55 34.06 55.27 34.42 55.54C34.54 55.63 34.65 55.71 34.76 55.81C34.80 55.85 34.86 55.89 34.89 55.94C34.94 56.03 34.91 56.24 34.91 56.34C34.91 56.63 34.94 56.90 34.94 57.19C34.94 57.27 34.94 57.38 34.93 57.47C34.93 57.50 34.93 57.55 34.89 57.56C34.83 57.57 34.75 57.54 34.70 57.53C34.54 57.50 34.40 57.47 34.25 57.43C33.72 57.31 33.20 57.20 32.66 57.08C30.65 56.64 28.63 56.20 26.61 55.75C26.49 55.72 26.36 55.70 26.24 55.67C26.19 55.66 26.13 55.64 26.08 55.66C25.99 55.71 26.01 55.89 25.99 55.97C25.90 56.25 25.78 56.51 25.65 56.76C25.57 56.91 25.48 57.05 25.37 57.19C25.35 57.22 25.30 57.31 25.26 57.31C25.17 57.30 25.06 57.13 24.99 57.06C24.77 56.78 24.62 56.45 24.50 56.12C24.46 56.01 24.42 55.71 24.27 55.70C24.21 55.69 24.14 55.72 24.09 55.73C23.94 55.77 23.80 55.81 23.65 55.84C23.20 55.95 22.76 56.05 22.32 56.16C20.81 56.54 19.28 56.92 17.76 57.27C17.23 57.39 16.71 57.53 16.18 57.65C16.05 57.68 15.92 57.71 15.80 57.73C15.75 57.74 15.69 57.77 15.66 57.73C15.62 57.70 15.62 57.63 15.62 57.58C15.59 57.43 15.62 57.28 15.60 57.13C15.58 56.89 15.58 56.65 15.56 56.41C15.55 56.33 15.50 56.16 15.54 56.10C15.58 56.01 15.74 55.93 15.82 55.87L16.53 55.34C17.87 54.34 19.22 53.33 20.55 52.30C21.03 51.93 21.52 51.55 22 51.15C22.23 50.94 22.49 50.74 22.69 50.50C22.99 50.13 22.93 49.65 22.89 49.21C22.83 48.34 22.73 47.48 22.63 46.62C22.55 45.82 22.48 45.02 22.43 44.23C22.34 42.92 22.35 41.62 22.30 40.32C22.27 39.63 22.27 38.93 22.25 38.24C22.22 37.72 22.21 37.20 22.21 36.68C22.21 35.69 22.13 34.68 22.13 33.69C22.13 33.44 22.11 33.19 22.10 32.93C22.10 32.88 22.12 32.71 22.07 32.68C22.03 32.64 21.90 32.68 21.85 32.68C21.62 32.70 21.40 32.74 21.17 32.76C20.55 32.82 19.93 32.92 19.31 33C18.97 33.05 18.59 33.05 18.26 33.16C18.10 33.21 18.16 33.44 18.12 33.56C18.12 33.59 18.09 33.71 18.04 33.71C17.99 33.71 17.97 33.64 17.96 33.61C17.91 33.52 17.89 33.38 17.81 33.32C17.66 33.22 17.42 33.28 17.27 33.28C17.19 33.28 17.11 33.30 17.05 33.24C16.98 33.15 16.96 32.95 16.93 32.84C16.92 32.76 16.92 32.68 16.83 32.68C16.71 32.68 16.57 32.74 16.44 32.76C16.18 32.81 15.93 32.86 15.68 32.91C15.58 32.94 15.49 32.96 15.40 32.99C15.37 32.99 15.31 33 15.29 33.03C15.22 33.11 15.22 33.34 15.22 33.44C15.22 33.48 15.23 33.59 15.19 33.61C15.13 33.65 15.04 33.67 14.98 33.69C14.85 33.73 14.71 33.77 14.57 33.83C14.10 34 13.60 34.14 13.14 34.35C12.99 34.42 12.89 34.52 12.81 34.66C12.75 34.75 12.68 34.89 12.58 34.94C12.54 34.96 12.50 34.91 12.48 34.87C12.44 34.80 12.40 34.57 12.29 34.60C12.07 34.64 11.85 34.75 11.64 34.82C11.20 34.96 10.75 35.10 10.32 35.26C9.98 35.38 9.63 35.49 9.29 35.61C9.11 35.67 8.92 35.71 8.75 35.79C8.70 35.82 8.67 35.90 8.64 35.95C8.56 36.09 8.45 36.38 8.28 36.42C8.10 36.48 8.12 36.13 7.94 36.13C7.79 36.13 7.61 36.21 7.46 36.26C7.07 36.37 6.66 36.51 6.26 36.58C6.22 36.58 6.16 36.59 6.12 36.57C6.02 36.54 5.99 36.44 5.86 36.46C5.71 36.47 5.55 36.56 5.40 36.62C5.12 36.73 4.83 36.85 4.55 36.96C3.56 37.37 2.59 37.79 1.60 38.19C1.26 38.32 0.94 38.46 0.60 38.59C0.52 38.62 0.44 38.65 0.36 38.67C0.33 38.67 0.28 38.69 0.27 38.66C0.25 38.61 0.25 38.51 0.25 38.46C0.25 38.33 0.25 38.22 0.24 38.09C0.22 37.63 0.19 37.16 0.19 36.70L0.19 36.28C0.19 36.23 0.17 36.15 0.20 36.10C0.25 36.02 0.38 35.97 0.45 35.92C0.64 35.78 0.85 35.64 1.04 35.51C1.73 35.03 2.42 34.56 3.10 34.08C5.76 32.25 8.41 30.41 11.07 28.57C11.88 28.02 12.70 27.45 13.51 26.89C13.79 26.70 14.06 26.52 14.32 26.32C14.44 26.25 14.57 26.19 14.67 26.09C14.71 26.03 14.68 25.84 14.67 25.76C14.65 25.51 14.65 25.26 14.65 25.01C14.60 24.07 14.59 23.12 14.59 22.19C14.59 21.82 14.53 21.36 14.89 21.13C15.04 21.03 15.24 20.99 15.42 20.97C15.56 20.95 15.71 20.94 15.86 20.93C16.28 20.91 16.82 20.86 17.07 21.30C17.19 21.51 17.19 21.77 17.21 22.01C17.24 22.37 17.24 22.74 17.27 23.10C17.29 23.43 17.27 23.76 17.30 24.09C17.31 24.17 17.31 24.24 17.32 24.32C17.32 24.35 17.33 24.39 17.35 24.39C17.39 24.40 17.43 24.36 17.46 24.34C17.54 24.29 17.63 24.23 17.71 24.17C18.03 23.96 18.35 23.74 18.66 23.53C19.16 23.20 19.65 22.85 20.15 22.52C20.32 22.40 20.48 22.29 20.64 22.18C20.74 22.12 20.85 22.06 20.93 21.98C21.05 21.85 21.14 21.63 21.23 21.47C21.48 21.05 21.70 20.61 21.82 20.12C21.94 19.63 21.90 19.10 21.91 18.59C21.92 17.86 21.92 17.13 21.92 16.40C21.92 14 21.91 11.59 21.91 9.19C21.91 8.37 21.90 7.54 21.93 6.72C21.96 6.08 21.96 5.46 22.11 4.83C22.29 4.08 22.53 3.35 22.83 2.63C23.02 2.17 23.23 1.68 23.51 1.25C23.67 1 23.86 0.79 24.07 0.57C24.18 0.46 24.32 0.34 24.48 0.33C24.70 0.32 24.89 0.45 25.06 0.59C25.42 0.89 25.66 1.35 25.88 1.78C26.38 2.78 26.87 3.84 27.12 4.94C27.26 5.59 27.27 6.26 27.34 6.92C27.37 7.19 27.35 7.48 27.37 7.75C27.39 8.40 27.39 9.05 27.41 9.70C27.45 11.29 27.45 12.87 27.49 14.47C27.51 15.08 27.50 15.68 27.52 16.29C27.56 17.13 27.54 17.98 27.60 18.82C27.64 19.34 27.65 19.87 27.82 20.37C27.96 20.77 28.18 21.13 28.40 21.49C28.49 21.63 28.57 21.82 28.69 21.93C28.76 22 28.86 22.04 28.94 22.09C29.10 22.19 29.25 22.29 29.41 22.39C29.88 22.69 30.36 22.99 30.82 23.30C31.15 23.51 31.47 23.72 31.80 23.92C31.95 24.02 32.13 24.17 32.30 24.21"/>
 </g>
</svg>