<?xml version="1.0" encoding="utf-8"?>
<!DOCTYPE svg PUBLIC "-//W3C//DTD SVG 1.0//EN" "http://www.w3.org/TR/2001/REC-SVG-20010904/DTD/svg10.dtd">
<svg version="1.0" xmlns="http://www.w3.org/2000/svg" width="50px" height="59px" viewBox="0 0 50 59" preserveAspectRatio="xMidYMid meet">
 <g fill="none" stroke="#000000" stroke-width="0.042">
  <path d="M40.56 29.16C40.58 29.09 40.57 29.02 40.57 28.95C40.57 28.84 40.58 28.74 40.58 28.63C40.58 28.33 40.58 28.01 40.60 27.70C40.61 27.52 40.58 27.25 40.70 27.09C40.81 26.94 41.12 26.98 41.28 26.98C41.69 26.98 42.11 26.96 42.53 26.98C42.74 26.98 42.96 27.04 43.02 27.28C43.08 27.57 43.05 27.88 43.03 28.17C43.03 28.36 43.04 28.55 43.03 28.74C43.02 28.91 43.07 29.11 43.03 29.27C42.99 29.38 42.84 29.44 42.80 29.54C42.78 29.59 42.79 29.67 42.79 29.73L42.79 30.16L42.79 30.89C42.79 30.97 42.77 31.11 42.81 31.17C42.92 31.32 43.11 31.43 43.25 31.56C43.59 31.86 43.92 32.16 44.27 32.46C45.31 33.39 46.36 34.30 47.40 35.23C47.78 35.58 48.17 35.91 48.54 36.28C48.72 36.46 48.92 36.63 49.04 36.87C49.18 37.14 49.20 37.50 49.22 37.80C49.27 38.22 49.27 38.63 49.28 39.05C49.28 39.28 49.29 39.51 49.28 39.74C49.27 39.92 49.28 40.12 49.28 40.30C49.27 40.63 49.25 40.97 49.25 41.30C49.25 41.44 49.25 41.58 49.24 41.72C49.24 41.76 49.26 41.84 49.23 41.87C49.21 41.91 49.07 41.88 49.03 41.88C49.01 41.88 48.98 41.88 48.97 41.87C48.94 41.83 48.96 41.72 48.96 41.68L48.96 40.62C48.96 40.53 49 40.32 48.92 40.26C48.72 40.12 48.47 40 48.26 39.88C47.86 39.63 47.45 39.40 47.05 39.17C45.82 38.45 44.58 37.72 43.36 37C42.59 36.54 41.81 36.09 41.04 35.63C40.83 35.51 40.63 35.38 40.41 35.27C40.35 35.23 40.24 35.13 40.17 35.13C40.13 35.13 40.14 35.28 40.14 35.31C40.14 35.47 40.14 35.65 40.13 35.82C40.12 35.86 40.12 35.97 40.04 35.95C39.97 35.92 39.92 35.82 39.88 35.75C39.77 35.54 39.70 35.30 39.66 35.07C39.64 34.99 39.64 34.84 39.58 34.79C39.52 34.72 39.39 34.67 39.31 34.63C39.12 34.51 38.92 34.39 38.72 34.28C38.38 34.08 38.03 33.88 37.67 33.67C37.49 33.56 37.30 33.40 37.10 33.33C37.03 33.31 37.06 33.47 37.06 33.52C37.06 33.68 37.05 33.86 37.04 34.03C37.03 34.08 37.03 34.17 36.96 34.17C36.87 34.17 36.80 34 36.77 33.92C36.67 33.74 36.63 33.54 36.58 33.34C36.56 33.25 36.55 33.13 36.50 33.04C36.45 32.94 36.32 32.87 36.22 32.81C35.99 32.67 35.76 32.54 35.51 32.44C34.76 32.13 33.96 31.92 33.19 31.67C32.98 31.60 32.78 31.52 32.56 31.47C32.51 31.45 32.40 31.39 32.34 31.41C32.29 31.42 32.30 31.53 32.30 31.58C32.28 31.75 32.31 31.92 32.29 32.10C32.28 32.15 32.30 32.30 32.22 32.29C32.14 32.29 32.08 32.17 32.04 32.11C31.94 31.91 31.87 31.69 31.83 31.47C31.82 31.41 31.83 31.27 31.77 31.23C31.73 31.19 31.67 31.18 31.62 31.17C31.49 31.13 31.38 31.08 31.25 31.05C30.82 30.91 30.38 30.79 29.95 30.63C29.88 30.83 29.92 31.08 29.92 31.28C29.92 31.34 29.92 31.49 29.88 31.53C29.79 31.60 29.67 31.39 29.65 31.34C29.55 31.17 29.48 30.98 29.42 30.78C29.40 30.70 29.39 30.57 29.34 30.49C29.26 30.39 29.08 30.35 28.96 30.31C28.65 30.21 28.34 30.11 28.03 30.01L27.73 29.92C27.71 29.91 27.65 29.88 27.63 29.91C27.62 29.94 27.63 29.99 27.63 30.02L27.63 30.30L27.63 31.28L27.63 34.79C27.63 36.48 27.62 38.18 27.62 39.88C27.62 41.35 27.63 42.83 27.53 44.31C27.46 45.40 27.34 46.48 27.20 47.57C27.16 47.89 27.11 48.22 27.07 48.55C27.05 48.65 27.03 48.74 27.02 48.84C27.02 48.88 27 48.94 27.01 48.98C27.02 49.03 27.09 49.08 27.13 49.11C27.23 49.21 27.34 49.31 27.45 49.41C27.87 49.81 28.30 50.20 28.73 50.58C30.28 51.99 31.83 53.42 33.36 54.85C33.60 55.08 33.84 55.30 34.09 55.53C34.17 55.59 34.23 55.66 34.31 55.72C34.35 55.76 34.42 55.80 34.44 55.85C34.48 55.92 34.45 56.06 34.46 56.14C34.49 56.46 34.49 56.78 34.49 57.09L34.49 57.64C34.49 57.71 34.49 57.83 34.45 57.88C34.42 57.93 34.36 57.92 34.31 57.90C34.18 57.88 34.07 57.84 33.94 57.81C33.42 57.68 32.90 57.54 32.38 57.41C30.82 57.02 29.26 56.59 27.71 56.17C27.25 56.05 26.79 55.92 26.33 55.82C26.22 55.78 26.09 55.76 25.98 55.72C25.92 55.71 25.85 55.67 25.80 55.68C25.75 55.69 25.73 55.78 25.73 55.82C25.67 55.96 25.64 56.10 25.61 56.24C25.48 56.75 25.38 57.27 25.26 57.78C25.23 57.92 25.22 58.23 25.04 58.26C24.99 58.27 24.92 58.27 24.88 58.22C24.83 58.18 24.83 58.12 24.82 58.06C24.78 57.93 24.75 57.80 24.73 57.67C24.61 57.18 24.51 56.68 24.38 56.19C24.36 56.07 24.33 55.94 24.29 55.83C24.27 55.78 24.26 55.72 24.22 55.69C24.18 55.67 24.13 55.69 24.09 55.70C23.99 55.72 23.88 55.76 23.78 55.78C23.38 55.89 22.96 56 22.55 56.11C20.88 56.53 19.22 56.97 17.55 57.42C17.04 57.57 16.53 57.69 16.02 57.82C15.91 57.85 15.80 57.88 15.68 57.90C15.63 57.92 15.57 57.92 15.53 57.86C15.47 57.70 15.50 57.49 15.51 57.33C15.52 57.02 15.53 56.69 15.53 56.38C15.53 56.25 15.53 56.12 15.55 55.98C15.55 55.94 15.54 55.89 15.56 55.85C15.59 55.80 15.66 55.76 15.70 55.72C15.81 55.62 15.91 55.52 16.02 55.42C16.37 55.11 16.71 54.78 17.06 54.47C18.34 53.31 19.61 52.13 20.87 50.96C21.33 50.53 21.79 50.11 22.25 49.67C22.48 49.46 22.73 49.25 22.92 49C23.01 48.89 22.97 48.79 22.95 48.67C22.92 48.42 22.88 48.18 22.85 47.94C22.72 46.99 22.60 46.03 22.53 45.07C22.49 44.45 22.44 43.84 22.42 43.22C22.38 42.20 22.39 41.17 22.38 40.15C22.36 38.14 22.38 36.13 22.38 34.12C22.38 33.05 22.38 31.99 22.36 30.92C22.35 30.67 22.35 30.42 22.35 30.17C22.35 30.12 22.37 29.93 22.32 29.91C22.29 29.89 22.24 29.92 22.22 29.93C22.13 29.96 22.02 29.99 21.93 30.02C21.62 30.13 21.30 30.23 20.98 30.33C20.88 30.37 20.70 30.41 20.66 30.51C20.62 30.61 20.61 30.73 20.58 30.83C20.52 30.99 20.45 31.16 20.37 31.32C20.34 31.38 20.24 31.55 20.17 31.53C20.12 31.52 20.12 31.42 20.11 31.38C20.09 31.20 20.08 31.02 20.08 30.85C20.08 30.81 20.09 30.65 20.04 30.64C20.01 30.63 19.95 30.67 19.92 30.67C19.83 30.70 19.73 30.73 19.64 30.76C19.31 30.87 18.98 30.98 18.65 31.08C18.55 31.11 18.45 31.14 18.35 31.17C18.32 31.18 18.26 31.19 18.23 31.23C18.19 31.30 18.19 31.42 18.17 31.51C18.13 31.70 18.08 31.89 17.98 32.07C17.94 32.13 17.88 32.28 17.78 32.29C17.71 32.30 17.72 32.15 17.71 32.10C17.69 31.92 17.72 31.74 17.71 31.57C17.71 31.52 17.72 31.41 17.65 31.40C17.54 31.40 17.39 31.48 17.29 31.52C17.03 31.60 16.77 31.68 16.51 31.77C15.93 31.96 15.35 32.13 14.78 32.33C14.47 32.45 14.18 32.58 13.89 32.75C13.77 32.82 13.64 32.89 13.54 32.98C13.47 33.06 13.47 33.18 13.44 33.28C13.39 33.50 13.33 33.74 13.23 33.95C13.20 34.03 13.15 34.13 13.07 34.17C12.99 34.21 12.98 34.10 12.97 34.04C12.94 33.88 12.94 33.69 12.94 33.52C12.94 33.48 12.96 33.33 12.92 33.33C12.86 33.33 12.78 33.40 12.73 33.42C12.59 33.51 12.44 33.59 12.30 33.68C11.87 33.93 11.43 34.19 11 34.44C10.87 34.53 10.73 34.60 10.59 34.68C10.54 34.72 10.45 34.74 10.42 34.79C10.36 34.87 10.36 35.03 10.34 35.11C10.30 35.32 10.24 35.52 10.14 35.71C10.11 35.78 10.06 35.88 9.98 35.93C9.90 36 9.89 35.88 9.88 35.82C9.86 35.66 9.86 35.48 9.86 35.32C9.86 35.28 9.88 35.13 9.83 35.13C9.79 35.13 9.73 35.18 9.70 35.21C9.60 35.26 9.51 35.32 9.41 35.38C9.06 35.58 8.72 35.78 8.37 35.98C6.13 37.28 3.90 38.58 1.67 39.91C1.52 40 1.38 40.08 1.23 40.17C1.18 40.20 1.08 40.23 1.05 40.29C1.03 40.33 1.04 40.38 1.04 40.41L1.04 40.67L1.04 41.61L1.04 41.80C1.04 41.83 1.05 41.86 1.02 41.88C1 41.90 0.92 41.88 0.88 41.88C0.84 41.88 0.79 41.89 0.77 41.88C0.74 41.86 0.75 41.82 0.75 41.79L0.75 41.58C0.75 41.28 0.74 40.97 0.74 40.67C0.74 40 0.74 39.32 0.75 38.64C0.76 38.05 0.76 37.45 0.96 36.88C1.06 36.59 1.32 36.39 1.54 36.19C1.92 35.85 2.29 35.52 2.67 35.18C3.68 34.28 4.70 33.38 5.72 32.47C6.03 32.19 6.35 31.92 6.67 31.63C6.83 31.48 7.03 31.35 7.18 31.18C7.23 31.12 7.21 30.98 7.21 30.90L7.21 30.16L7.21 29.73C7.21 29.67 7.22 29.59 7.20 29.54C7.17 29.43 7 29.38 6.97 29.27C6.94 29.09 6.98 28.89 6.97 28.72C6.96 28.38 6.94 28.02 6.97 27.67C6.97 27.52 6.96 27.36 7.02 27.21C7.10 26.98 7.27 27 7.47 26.98C7.88 26.92 8.32 26.98 8.75 26.98C8.92 26.98 9.18 26.95 9.30 27.08C9.43 27.23 9.39 27.52 9.40 27.69C9.43 28.18 9.43 28.67 9.43 29.16L9.44 29.17C9.58 29.08 9.70 28.95 9.82 28.84C10.08 28.61 10.36 28.37 10.63 28.13C11.48 27.38 12.33 26.62 13.18 25.86C13.52 25.55 13.88 25.25 14.22 24.94C14.31 24.86 14.41 24.77 14.50 24.69C14.54 24.66 14.59 24.63 14.62 24.58C14.66 24.49 14.63 24.32 14.63 24.23L14.63 23.36L14.63 23.09C14.63 23.06 14.63 23.01 14.62 22.98C14.60 22.94 14.50 22.94 14.47 22.93C14.38 22.90 14.27 22.83 14.23 22.74C14.16 22.58 14.19 22.35 14.19 22.17C14.19 21.77 14.16 21.37 14.20 20.98C14.21 20.83 14.20 20.67 14.27 20.54C14.37 20.38 14.65 20.39 14.82 20.39C15.25 20.38 15.68 20.37 16.12 20.40C16.33 20.42 16.53 20.42 16.59 20.67C16.63 20.88 16.62 21.09 16.62 21.30C16.62 21.66 16.61 22.01 16.61 22.37C16.61 22.48 16.61 22.60 16.58 22.70C16.56 22.77 16.50 22.80 16.52 22.87L16.47 22.89C16.48 22.82 16.52 22.86 16.58 22.83C16.67 22.77 16.74 22.68 16.83 22.61C17.16 22.33 17.49 22.03 17.83 21.74C18.92 20.76 20.04 19.78 21.14 18.80C21.44 18.53 21.74 18.27 22.04 18C22.12 17.93 22.20 17.86 22.27 17.79C22.31 17.77 22.36 17.73 22.37 17.69C22.40 17.60 22.38 17.45 22.38 17.36L22.38 16.59L22.38 14C22.38 12.63 22.38 11.27 22.38 9.90C22.38 9.38 22.39 8.88 22.39 8.36C22.39 7.93 22.38 7.51 22.41 7.08C22.47 6.28 22.64 5.47 22.83 4.69C23.08 3.72 23.35 2.74 23.80 1.84C24 1.43 24.30 0.97 24.74 0.80C25.09 0.67 25.43 0.84 25.68 1.09C26.13 1.53 26.39 2.17 26.60 2.74C26.91 3.59 27.14 4.47 27.33 5.37C27.42 5.87 27.52 6.38 27.58 6.89C27.61 7.26 27.60 7.62 27.61 7.98C27.63 8.75 27.63 9.52 27.63 10.29L27.63 15.63L27.63 17.11L27.63 17.52C27.63 17.58 27.61 17.65 27.63 17.70C27.69 17.81 27.85 17.91 27.94 17.98C28.18 18.20 28.43 18.42 28.67 18.63C29.51 19.37 30.33 20.10 31.16 20.83C31.80 21.41 32.45 21.98 33.10 22.55C33.26 22.69 33.42 22.83 33.58 22.98C33.63 23.01 33.71 23.12 33.77 23.12C33.83 23.11 33.78 23 33.76 22.98C33.72 22.94 33.66 22.93 33.61 22.91C33.49 22.83 33.42 22.74 33.41 22.61C33.36 22.15 33.38 21.68 33.38 21.23C33.38 21.02 33.36 20.73 33.47 20.54C33.54 20.40 33.72 20.40 33.87 20.40C34.18 20.40 34.51 20.38 34.83 20.38C35.03 20.38 35.23 20.38 35.43 20.41C35.53 20.42 35.63 20.43 35.70 20.49C35.80 20.58 35.82 20.74 35.82 20.87C35.82 21.12 35.83 21.37 35.83 21.62C35.83 21.83 35.82 22.06 35.82 22.27C35.82 22.41 35.83 22.58 35.78 22.71C35.75 22.81 35.64 22.89 35.55 22.93C35.51 22.95 35.40 22.95 35.38 22.99C35.37 23.02 35.38 23.08 35.38 23.13L35.38 23.42L35.38 24.19C35.38 24.31 35.35 24.45 35.38 24.56C35.39 24.61 35.44 24.64 35.47 24.67C35.57 24.75 35.65 24.83 35.74 24.90C36.06 25.17 36.37 25.47 36.68 25.73C37.58 26.51 38.45 27.30 39.33 28.08C39.61 28.33 39.88 28.58 40.16 28.82C40.28 28.92 40.41 29.08 40.56 29.16M16.53 22.83L16.50 22.85M16.43 22.90L16.45 22.90L16.43 22.88L16.46 22.87M16.45 22.91C16.42 22.97 16.34 23.02 16.29 23.05C16.27 23.06 16.23 23.08 16.22 23.06C16.20 23.04 16.23 22.99 16.24 22.98C16.28 22.93 16.38 22.91 16.43 22.88M16.48 22.88L16.47 22.92"/>
 </g>
</svg>