<?xml version="1.0" encoding="utf-8"?>
<!DOCTYPE svg PUBLIC "-//W3C//DTD SVG 1.0//EN" "http://www.w3.org/TR/2001/REC-SVG-20010904/DTD/svg10.dtd">
<svg version="1.0" xmlns="http://www.w3.org/2000/svg" width="50px" height="50px" viewBox="0 0 50 50" preserveAspectRatio="xMidYMid meet">
 <g fill="none" stroke="#000000" stroke-width="0.05">
  <path d="M23.81 0.35C23.92 0.34 24.06 0.35 24.17 0.35C24.22 0.35 24.28 0.34 24.33 0.36C24.39 0.40 24.45 0.49 24.50 0.54C24.73 0.76 24.85 1.05 25 1.33C25.17 1.65 25.34 1.99 25.45 2.34C25.54 2.62 25.58 2.90 25.64 3.19C25.68 3.38 25.74 3.57 25.76 3.76C25.79 4.07 25.76 4.40 25.76 4.70C25.76 8.39 25.79 12.09 25.79 15.77C25.79 16.60 25.80 17.44 25.80 18.27C25.80 18.46 25.78 18.66 25.80 18.84C25.81 18.93 25.85 19.02 25.88 19.10C25.95 19.36 26.04 19.61 26.24 19.81C26.42 19.99 26.66 20.10 26.89 20.23C27.14 20.38 27.39 20.55 27.65 20.67C27.70 20.70 27.73 20.74 27.77 20.78C27.83 20.83 27.89 20.85 27.95 20.88C27.99 20.89 28.04 20.92 28.08 20.90C28.10 20.88 28.10 20.79 28.10 20.75C28.12 20.60 28.12 20.44 28.12 20.28C28.12 19.84 28.13 19.40 28.17 18.96C28.19 18.84 28.21 18.73 28.24 18.60C28.25 18.57 28.25 18.50 28.27 18.49C28.29 18.46 28.34 18.47 28.37 18.47C28.45 18.47 28.54 18.47 28.63 18.46C28.99 18.43 29.36 18.42 29.73 18.42C29.93 18.42 30.14 18.40 30.34 18.42C30.43 18.42 30.52 18.42 30.60 18.48C30.68 18.52 30.71 18.64 30.73 18.72C30.76 18.89 30.79 19.06 30.81 19.23C30.91 19.97 30.92 20.74 30.85 21.49C30.83 21.60 30.82 21.74 30.78 21.85C30.77 21.91 30.75 21.98 30.72 22.02C30.67 22.06 30.61 22.04 30.58 22.08C30.54 22.12 30.56 22.18 30.59 22.22C30.67 22.32 30.82 22.39 30.93 22.45C31.16 22.57 31.39 22.69 31.62 22.81C31.88 22.94 32.13 23.08 32.37 23.23C32.51 23.31 32.63 23.40 32.76 23.48C33.03 23.63 33.33 23.74 33.60 23.88C33.74 23.95 33.88 24.06 34.02 24.14C34.08 24.17 34.16 24.17 34.24 24.20C34.38 24.27 34.51 24.36 34.64 24.43C34.71 24.47 34.78 24.49 34.84 24.52C35.01 24.63 35.13 24.76 35.30 24.85C35.46 24.94 35.65 25 35.81 25.08C36.21 25.27 36.59 25.49 36.97 25.69C37.28 25.85 37.55 26.06 37.85 26.21C38.03 26.30 38.21 26.39 38.39 26.47C38.46 26.50 38.54 26.50 38.61 26.54C38.72 26.60 38.83 26.69 38.94 26.75C39.13 26.88 39.33 26.97 39.53 27.07C39.62 27.12 39.71 27.16 39.80 27.22C39.87 27.27 39.92 27.33 40 27.38C40.17 27.48 40.40 27.55 40.53 27.70C40.58 27.75 40.58 27.81 40.60 27.86C40.63 27.89 40.65 27.91 40.66 27.93C40.70 28.01 40.67 28.12 40.69 28.20C40.71 28.46 40.70 28.74 40.70 29L40.70 29.56C40.70 29.60 40.72 29.73 40.69 29.75C40.67 29.76 40.62 29.75 40.60 29.75L40.38 29.75C40.28 29.75 40.17 29.76 40.09 29.74C40.01 29.71 39.94 29.66 39.85 29.64C39.69 29.58 39.51 29.55 39.34 29.51C38.97 29.42 38.61 29.33 38.24 29.25C38 29.20 37.75 29.17 37.51 29.11C36.79 28.93 36.08 28.73 35.36 28.57C35.33 28.56 35.29 28.55 35.26 28.56C35.19 28.58 35.20 28.70 35.20 28.76C35.20 28.89 35.21 29.10 35.13 29.20C35.07 29.29 34.85 29.26 34.77 29.25C34.63 29.24 34.58 29.14 34.56 29.01C34.51 28.84 34.50 28.66 34.46 28.49C34.44 28.39 34.42 28.26 34.31 28.23C34.13 28.17 33.94 28.16 33.76 28.13C33.47 28.07 33.20 28 32.91 27.94C32.76 27.91 32.61 27.89 32.46 27.87C32.42 27.86 32.36 27.85 32.32 27.85C32.29 27.87 32.30 27.91 32.30 27.94C32.30 28.02 32.31 28.10 32.30 28.18C32.29 28.25 32.29 28.33 32.24 28.39C32.17 28.49 31.94 28.47 31.83 28.45C31.67 28.41 31.69 28.21 31.64 28.10C31.63 28.06 31.59 28.04 31.57 28.01C31.54 27.96 31.52 27.90 31.52 27.84C31.50 27.78 31.51 27.64 31.46 27.60C31.43 27.57 31.37 27.57 31.33 27.56C31.21 27.52 31.10 27.50 30.99 27.47C30.60 27.38 30.23 27.31 29.83 27.31C29.72 27.31 29.60 27.29 29.49 27.31C29.46 27.31 29.46 27.34 29.45 27.37C29.45 27.44 29.44 27.50 29.43 27.58C29.41 27.80 29.42 28.13 29.14 28.16C29.04 28.16 28.84 28.18 28.75 28.12C28.71 28.09 28.69 28.02 28.68 27.97C28.66 27.85 28.64 27.74 28.62 27.63C28.61 27.55 28.60 27.47 28.59 27.39C28.59 27.37 28.60 27.33 28.57 27.31C28.54 27.29 28.45 27.31 28.42 27.31C28.28 27.31 28.16 27.31 28.02 27.31C27.50 27.31 26.97 27.32 26.45 27.33C26.29 27.33 26.14 27.33 25.99 27.33C25.94 27.33 25.85 27.31 25.83 27.35C25.79 27.41 25.82 27.56 25.82 27.63L25.82 28.33C25.82 29.20 25.81 30.08 25.81 30.95C25.81 32.38 25.80 33.81 25.78 35.24C25.77 36.06 25.78 36.88 25.77 37.69C25.77 38.33 25.75 38.96 25.75 39.60C25.75 40.30 25.73 41 25.66 41.69C25.64 41.87 25.61 42.05 25.59 42.22C25.57 42.39 25.54 42.56 25.62 42.71C25.67 42.83 25.80 42.92 25.90 43C26.02 43.10 26.16 43.20 26.30 43.28C26.42 43.35 26.56 43.41 26.68 43.50C26.89 43.64 27.09 43.79 27.28 43.95C27.39 44.04 27.49 44.15 27.61 44.22C27.66 44.26 27.73 44.28 27.77 44.31C27.91 44.39 28.05 44.47 28.17 44.56C28.40 44.71 28.60 44.88 28.82 45.02C28.95 45.11 29.09 45.17 29.22 45.27C29.54 45.52 29.85 45.77 30.20 45.97C30.33 46.06 30.46 46.12 30.59 46.21C30.64 46.24 30.71 46.27 30.74 46.32C30.80 46.41 30.78 46.58 30.78 46.69C30.78 46.95 30.81 47.21 30.79 47.47C30.77 47.69 30.79 47.90 30.75 48.13C30.75 48.17 30.75 48.32 30.70 48.33C30.56 48.37 30.39 48.35 30.25 48.34C30.01 48.33 29.79 48.26 29.56 48.20C29.40 48.15 29.24 48.12 29.08 48.06C29 48.04 28.94 48 28.87 47.97C27.98 47.70 27.04 47.53 26.14 47.31C25.85 47.24 25.56 47.17 25.28 47.09C25.15 47.05 24.97 46.97 24.83 46.99C24.78 46.99 24.77 47.08 24.77 47.11C24.74 47.26 24.71 47.40 24.67 47.54C24.60 47.72 24.54 47.92 24.49 48.10C24.45 48.20 24.44 48.30 24.40 48.39C24.35 48.47 24.31 48.54 24.25 48.62C24.21 48.67 24.22 48.79 24.17 48.83C24.09 48.88 23.89 48.86 23.79 48.85C23.64 48.84 23.64 48.76 23.58 48.65C23.52 48.58 23.49 48.51 23.45 48.44C23.32 48.13 23.22 47.81 23.12 47.49C23.08 47.36 23.07 47.14 22.98 47.05C22.90 46.97 22.75 47.03 22.67 47.06C22.40 47.12 22.12 47.20 21.85 47.26C20.98 47.49 20.09 47.67 19.22 47.90C18.96 47.96 18.72 48.07 18.46 48.14C18.13 48.24 17.77 48.35 17.42 48.35C17.33 48.35 17.12 48.38 17.08 48.27C17.02 48.11 17.04 47.90 17.03 47.74C17.02 47.42 16.99 47.08 17.01 46.77C17.02 46.63 17 46.44 17.08 46.31C17.15 46.21 17.30 46.20 17.40 46.13C17.68 45.94 17.98 45.75 18.26 45.55C18.38 45.47 18.48 45.38 18.59 45.29C18.75 45.17 18.92 45.07 19.08 44.95C19.16 44.88 19.22 44.79 19.31 44.74C19.37 44.69 19.45 44.67 19.52 44.63C19.67 44.56 19.82 44.46 19.96 44.37C20.09 44.29 20.22 44.21 20.33 44.10C20.40 44.04 20.45 43.97 20.52 43.92C20.72 43.78 20.92 43.65 21.12 43.51C21.20 43.44 21.31 43.41 21.40 43.36C21.57 43.26 21.73 43.15 21.89 43.04C21.97 42.97 22.09 42.90 22.15 42.81C22.20 42.71 22.20 42.60 22.21 42.49C22.23 42.27 22.20 42.04 22.18 41.82C22.11 41.09 22.05 40.38 22.04 39.65C22 36.72 21.99 33.78 21.99 30.85C21.99 30.31 21.97 29.75 21.97 29.20C21.97 28.85 22 28.50 21.96 28.15C21.95 27.95 21.96 27.75 21.96 27.55C21.96 27.50 21.99 27.37 21.95 27.33C21.93 27.30 21.83 27.31 21.80 27.31C21.65 27.31 21.50 27.31 21.35 27.31L19.83 27.31L19.42 27.31C19.39 27.31 19.31 27.29 19.28 27.31C19.24 27.34 19.24 27.49 19.24 27.53C19.21 27.67 19.19 27.81 19.15 27.95C19.14 28 19.12 28.07 19.08 28.10C18.98 28.18 18.76 28.16 18.65 28.16C18.60 28.16 18.55 28.15 18.51 28.10C18.49 28.07 18.48 28.01 18.46 27.96C18.42 27.83 18.40 27.68 18.40 27.55C18.40 27.50 18.42 27.31 18.37 27.31C18.26 27.29 18.14 27.31 18.02 27.31C17.62 27.31 17.24 27.36 16.85 27.46C16.74 27.49 16.63 27.51 16.52 27.54C16.48 27.55 16.41 27.56 16.37 27.58C16.33 27.62 16.33 27.74 16.32 27.78C16.29 27.95 16.25 28.13 16.18 28.28C16.15 28.35 16.11 28.42 16.03 28.44C15.92 28.47 15.79 28.45 15.68 28.45C15.65 28.45 15.57 28.47 15.56 28.44C15.53 28.41 15.53 28.34 15.52 28.31L15.46 28C15.45 27.96 15.45 27.87 15.42 27.85C15.38 27.85 15.31 27.87 15.27 27.88C15.15 27.89 15.05 27.91 14.94 27.93C14.66 27.98 14.40 28.05 14.13 28.10C13.96 28.14 13.79 28.16 13.63 28.20C13.59 28.21 13.55 28.23 13.51 28.24C13.36 28.32 13.43 28.49 13.39 28.61C13.38 28.66 13.34 28.68 13.32 28.73C13.29 28.80 13.26 28.88 13.24 28.95C13.22 29.02 13.20 29.10 13.17 29.17C13.16 29.20 13.15 29.25 13.12 29.25C13.07 29.26 13.03 29.25 12.99 29.25C12.88 29.25 12.67 29.29 12.63 29.15C12.57 29 12.60 28.85 12.60 28.70C12.59 28.64 12.59 28.56 12.51 28.56C12.37 28.55 12.20 28.62 12.06 28.66C11.76 28.73 11.44 28.81 11.14 28.89C10.52 29.06 9.90 29.17 9.27 29.31C9.01 29.38 8.74 29.44 8.47 29.50C8.29 29.53 8.11 29.57 7.94 29.62C7.78 29.67 7.66 29.73 7.50 29.75C7.42 29.76 7.34 29.75 7.25 29.75C7.22 29.75 7.18 29.76 7.16 29.75C7.14 29.74 7.14 29.67 7.14 29.66C7.14 29.57 7.15 29.49 7.15 29.40C7.15 29.04 7.15 28.67 7.17 28.31C7.18 28.11 7.18 27.86 7.30 27.69C7.45 27.50 7.74 27.44 7.93 27.31C7.97 27.28 8.01 27.24 8.05 27.20C8.15 27.15 8.26 27.10 8.36 27.05C8.84 26.77 9.32 26.52 9.82 26.27C9.99 26.20 10.16 26.13 10.31 26.03C10.39 25.99 10.44 25.92 10.51 25.88C10.64 25.80 10.77 25.74 10.91 25.66C11.11 25.56 11.31 25.43 11.51 25.33C11.84 25.15 12.19 25 12.52 24.83C12.67 24.75 12.80 24.65 12.94 24.56C13.30 24.35 13.66 24.16 14.02 23.95C14.10 23.91 14.19 23.89 14.27 23.85C14.45 23.77 14.64 23.68 14.81 23.59C15.02 23.49 15.20 23.35 15.40 23.23C15.82 22.99 16.26 22.77 16.69 22.56C16.84 22.49 17 22.41 17.14 22.32C17.20 22.28 17.27 22.25 17.33 22.20C17.36 22.16 17.31 22.11 17.27 22.10C17.21 22.08 17.14 22.08 17.10 22.03C17.06 21.99 17.05 21.92 17.04 21.88C17.02 21.75 17 21.64 16.99 21.51C16.91 20.74 16.92 19.91 17.03 19.14C17.06 18.95 17.10 18.77 17.15 18.58C17.16 18.54 17.17 18.42 17.22 18.41C17.28 18.38 17.40 18.41 17.46 18.41C17.67 18.41 17.90 18.41 18.11 18.42C18.24 18.44 18.38 18.42 18.50 18.43C18.70 18.44 18.91 18.46 19.11 18.46C19.20 18.46 19.29 18.48 19.38 18.48C19.41 18.48 19.48 18.48 19.50 18.50C19.54 18.54 19.55 18.60 19.56 18.66C19.58 18.77 19.60 18.90 19.60 19.02C19.63 19.45 19.64 19.90 19.65 20.33C19.65 20.49 19.65 20.63 19.65 20.77C19.65 20.81 19.64 20.91 19.66 20.92C19.69 20.95 19.75 20.91 19.78 20.90C19.91 20.85 20.02 20.81 20.13 20.72C20.24 20.63 20.36 20.56 20.49 20.49C20.66 20.38 20.83 20.27 21.02 20.17C21.10 20.14 21.18 20.13 21.26 20.09C21.36 20.04 21.45 19.95 21.53 19.88C21.72 19.70 21.81 19.46 21.89 19.23C21.91 19.14 21.95 19.06 21.97 18.97C21.99 18.81 21.97 18.62 21.97 18.45C21.97 17.99 21.98 17.52 21.98 17.05C21.98 16.75 21.96 16.45 21.98 16.16C22 15.74 21.99 15.32 21.99 14.90C21.99 14.10 21.99 13.31 21.99 12.51C22 11.11 22 9.71 22.01 8.31C22.02 7.24 22.05 6.15 22.05 5.07C22.05 4.66 22.04 4.25 22.08 3.85C22.10 3.62 22.15 3.39 22.19 3.17C22.25 2.87 22.31 2.56 22.40 2.26C22.43 2.15 22.50 2.07 22.55 1.96C22.60 1.83 22.66 1.68 22.72 1.55C22.82 1.30 22.92 1.07 23.06 0.84C23.14 0.70 23.24 0.55 23.38 0.46C23.51 0.38 23.66 0.38 23.81 0.35"/>
 </g>
</svg>