<svg width="50" height="50" viewBox="0 0 50 50" fill="none" xmlns="http://www.w3.org/2000/svg">
<path d="M25 46.5625H25.0781L25.2344 46.4844L25.4687 46.25L25.8594 45.625L26.4062 44.2969L26.7969 42.7344L27.0312 40.7812V32.2656L27.2656 31.7969L27.6563 31.3281L30.2344 29.6094L30.0781 30.4687V31.7187L30.2344 32.8125L30.3125 32.9687H32.6562L32.7344 32.8125L32.8906 31.7187V30.4687L32.7344 29.375H32.4219L32.1094 28.3594L44.9219 19.9219L45.0781 19.5312L45.1562 18.3594L38.125 20.7812L38.0469 20.3125L37.9687 20.1562L37.8906 20.3125L37.8125 20.8594L34.5312 21.9531L34.4531 21.4844L34.375 21.3281L34.2969 21.4844L34.2187 22.0312L32.2656 22.6562H30.8594L30.7813 22.1094L30.7031 21.9531L30.625 22.1094L30.5469 22.6562H27.0312V14.375L26.875 12.8906L26.3281 9.92187L32.2656 5.07812L32.3438 4.53125V3.98437L32.2656 3.4375L25.625 5.85937L25.4687 5.54687L25.0781 4.14062H24.9219L24.5313 5.54687L24.375 5.85937L17.7344 3.4375L17.6563 3.98437V4.53125L17.7344 5.07812L23.6719 9.92187L23.125 12.8906L22.9688 14.375V22.6562H19.4531L19.375 22.1094L19.2969 21.9531L19.2188 22.1094L19.1406 22.6562H17.7344L15.7813 22.0312L15.7031 21.4844L15.625 21.3281L15.5469 21.4844L15.4687 21.9531L12.1875 20.8594L12.1094 20.3125L12.0312 20.1562L11.9531 20.3125L11.875 20.7812L4.84375 18.3594L4.92188 19.5312L5.07813 19.9219L17.8906 28.3594L17.5781 29.375H17.2656L17.1094 30.4687V31.7187L17.2656 32.8125L17.3438 32.9687H19.6875L19.7656 32.8125L19.9219 31.7187V30.4687L19.7656 29.6094L22.3438 31.3281L22.7344 31.7969L22.9688 32.2656V40.7812L23.2031 42.7344L23.5938 44.2969L24.1406 45.625L24.5313 46.25L24.7656 46.4844L24.9219 46.5625H25Z" stroke="black" stroke-width="0.5"/>
</svg>
