<?xml version="1.0" encoding="utf-8"?>
<!DOCTYPE svg PUBLIC "-//W3C//DTD SVG 1.0//EN" "http://www.w3.org/TR/2001/REC-SVG-20010904/DTD/svg10.dtd">
<svg version="1.0" xmlns="http://www.w3.org/2000/svg" width="50px" height="73px" viewBox="0 0 50 73" preserveAspectRatio="xMidYMid meet">
 <g fill="none" stroke="#000000" stroke-width="0.073">
  <path d="M0.20 45C0.20 44.64 0.28 44.28 0.34 43.92C0.44 43.35 0.55 42.79 0.70 42.24C0.76 42.01 0.82 41.78 0.89 41.54C0.94 41.42 0.98 41.29 1.06 41.18C1.20 41 1.43 40.86 1.62 40.74C1.98 40.50 2.34 40.27 2.71 40.05C3.81 39.37 4.92 38.69 6.03 38.02C9.74 35.80 13.41 33.51 17.14 31.33C18.29 30.65 19.43 29.96 20.58 29.27C20.89 29.08 21.19 28.90 21.51 28.71C21.60 28.65 21.82 28.58 21.87 28.48C21.90 28.44 21.89 28.39 21.89 28.35L21.89 28.04L21.89 26.88C21.89 25.49 21.89 24.10 21.92 22.71C22 19.30 21.97 15.89 22.05 12.47C22.09 11.18 22.09 9.87 22.14 8.57C22.16 7.99 22.16 7.40 22.23 6.82C22.29 6.30 22.33 5.76 22.44 5.23C22.58 4.57 22.82 3.93 23.07 3.30C23.28 2.78 23.50 2.25 23.77 1.76C23.99 1.38 24.21 0.98 24.52 0.67C24.66 0.53 24.82 0.38 25.02 0.37C25.26 0.37 25.48 0.54 25.60 0.72C25.86 1.05 26.07 1.41 26.28 1.77C26.73 2.57 27.17 3.42 27.45 4.30C27.58 4.72 27.65 5.18 27.71 5.62C27.77 6.03 27.83 6.44 27.86 6.84C27.99 9.25 27.98 11.65 28.05 14.06C28.11 16.79 28.12 19.53 28.12 22.26C28.12 23.73 28.15 25.19 28.15 26.65C28.15 27.09 28.16 27.53 28.19 27.97C28.20 28.10 28.20 28.21 28.21 28.34C28.21 28.39 28.20 28.46 28.22 28.51C28.27 28.60 28.48 28.67 28.58 28.73C28.89 28.92 29.19 29.11 29.51 29.29C30.63 29.95 31.73 30.63 32.86 31.29C37 33.78 41.15 36.24 45.25 38.78C46.10 39.29 46.94 39.80 47.78 40.34C48.04 40.49 48.30 40.64 48.55 40.83C48.71 40.93 48.88 41.03 48.99 41.19C49.14 41.41 49.21 41.68 49.28 41.93C49.42 42.40 49.52 42.90 49.62 43.37C49.69 43.72 49.74 44.07 49.77 44.42C49.79 44.57 49.81 44.79 49.77 44.93C49.66 44.90 49.58 44.81 49.50 44.74C49.35 44.60 49.20 44.47 49.03 44.34C48.62 44.03 48.15 43.79 47.66 43.61C46.66 43.21 45.62 42.90 44.59 42.57C43.08 42.10 41.58 41.64 40.07 41.18C37.78 40.49 35.51 39.66 33.09 39.66C31.82 39.64 30.56 39.61 29.30 39.61C29 39.61 28.70 39.63 28.41 39.61C28.36 39.60 28.14 39.57 28.12 39.62C28.09 39.68 28.11 39.76 28.11 39.81L28.11 40.25L28.11 41.82L28.11 45.40C28.11 46.08 28.09 46.76 28.12 47.45C28.14 47.99 28.12 48.55 28.13 49.10C28.13 49.25 28.13 49.39 28.13 49.54C28.13 49.58 28.12 49.67 28.15 49.71C28.18 49.74 28.27 49.72 28.32 49.72C28.48 49.72 28.64 49.71 28.81 49.71C29.24 49.71 29.66 49.66 30.09 49.66C30.31 49.66 30.54 49.66 30.75 49.74C31.20 49.89 31.26 50.40 31.31 50.81C31.43 51.79 31.39 52.80 31.22 53.78C31.12 54.30 30.95 54.82 30.83 55.34C30.69 55.91 30.60 56.47 30.46 57.04C30.37 57.39 30.27 57.75 30.10 58.07C30.04 58.20 29.98 58.35 29.88 58.45C29.78 58.53 29.71 58.43 29.65 58.36C29.52 58.23 29.36 58.03 29.15 58.08C28.64 58.21 28.14 58.47 27.66 58.69C27.34 58.82 27 58.95 26.71 59.14C26.63 59.18 26.63 59.36 26.63 59.43C26.56 59.71 26.51 59.99 26.44 60.28L25.87 63.05C25.82 63.30 25.77 63.55 25.71 63.80C25.70 63.89 25.64 64.03 25.66 64.13C25.68 64.20 25.75 64.25 25.80 64.30C25.92 64.43 26.08 64.55 26.22 64.66C26.77 65.06 27.32 65.45 27.89 65.82C29.59 66.96 31.27 68.14 32.98 69.28C33.49 69.63 34 69.97 34.51 70.31C34.66 70.41 34.82 70.51 34.98 70.63C35.04 70.67 35.12 70.70 35.17 70.77C35.25 70.88 35.20 71.13 35.21 71.27C35.25 71.63 35.25 72.01 35.26 72.38C35.26 72.51 35.31 72.71 35.27 72.85C35.25 72.92 35.07 72.84 35.02 72.83C34.76 72.77 34.51 72.68 34.26 72.60C33.17 72.26 32.08 71.93 31 71.61C29.94 71.30 28.88 70.99 27.82 70.70C27.02 70.46 26.21 70.22 25.38 70.18C24.36 70.14 23.39 70.38 22.41 70.64C21.13 70.97 19.87 71.38 18.59 71.75C17.62 72.04 16.65 72.34 15.67 72.64C15.45 72.70 15.21 72.78 14.99 72.85C14.94 72.86 14.79 72.94 14.77 72.87C14.73 72.71 14.79 72.49 14.80 72.34C14.80 71.97 14.82 71.60 14.86 71.24C14.87 71.10 14.85 70.86 14.93 70.73C14.97 70.67 15.07 70.63 15.13 70.59C15.28 70.48 15.43 70.39 15.58 70.29C16.08 69.95 16.60 69.60 17.09 69.27C18.78 68.14 20.45 66.99 22.12 65.84C22.67 65.48 23.21 65.09 23.75 64.69C23.88 64.60 24.02 64.49 24.16 64.39C24.22 64.33 24.30 64.28 24.32 64.19C24.36 64.08 24.33 63.96 24.32 63.85C24.29 63.58 24.24 63.31 24.19 63.04C24 62.13 23.83 61.22 23.62 60.32C23.56 60.04 23.51 59.77 23.46 59.49C23.43 59.40 23.43 59.24 23.35 59.18C23.21 59.08 23.02 59.02 22.87 58.95C22.64 58.84 22.42 58.72 22.19 58.62C21.79 58.43 21.39 58.20 20.97 58.10C20.70 58.04 20.58 58.16 20.40 58.35C20.35 58.40 20.24 58.53 20.18 58.46C19.77 58.03 19.66 57.34 19.55 56.79C19.41 56.23 19.31 55.67 19.18 55.12C19.05 54.60 18.89 54.08 18.80 53.54C18.67 52.62 18.61 51.66 18.75 50.74C18.81 50.30 18.89 49.86 19.38 49.71C19.69 49.62 20.06 49.64 20.38 49.66C20.65 49.69 20.94 49.69 21.21 49.71C21.38 49.72 21.54 49.71 21.70 49.74C21.74 49.74 21.84 49.77 21.87 49.72C21.90 49.69 21.89 49.61 21.89 49.57L21.89 49.12L21.89 47.39L21.89 41.82L21.89 40.26L21.89 39.82C21.89 39.77 21.90 39.69 21.87 39.63C21.85 39.58 21.65 39.61 21.60 39.61L20.68 39.61C19.41 39.61 18.16 39.63 16.89 39.63C15.02 39.63 13.23 40.23 11.45 40.75C9.06 41.45 6.65 42.17 4.28 42.95C3.10 43.35 1.83 43.67 0.86 44.47C0.71 44.61 0.55 44.74 0.40 44.88C0.31 44.96 0.22 45.01 0.16 45.10"/>
 </g>
</svg>